<?xml version="1.0" encoding="UTF-8" standalone="no"?>
<!-- Created with Inkscape (http://www.inkscape.org/) -->

<svg
   xmlns:dc="http://purl.org/dc/elements/1.1/"
   xmlns:cc="http://creativecommons.org/ns#"
   xmlns:rdf="http://www.w3.org/1999/02/22-rdf-syntax-ns#"
   xmlns:svg="http://www.w3.org/2000/svg"
   xmlns="http://www.w3.org/2000/svg"
   xmlns:sodipodi="http://sodipodi.sourceforge.net/DTD/sodipodi-0.dtd"
   xmlns:inkscape="http://www.inkscape.org/namespaces/inkscape"
   id="svg2"
   version="1.1"
   inkscape:version="0.48.4 r9939"
   width="727.5125"
   height="125.675"
   xml:space="preserve"
   sodipodi:docname="NewCSU-stacked.eps"><metadata
     id="metadata8"><rdf:RDF><cc:Work
         rdf:about=""><dc:format>image/svg+xml</dc:format><dc:type
           rdf:resource="http://purl.org/dc/dcmitype/StillImage" /><dc:title></dc:title></cc:Work></rdf:RDF></metadata><defs
     id="defs6" /><sodipodi:namedview
     pagecolor="#ffffff"
     bordercolor="#666666"
     borderopacity="1"
     objecttolerance="10"
     gridtolerance="10"
     guidetolerance="10"
     inkscape:pageopacity="0"
     inkscape:pageshadow="2"
     inkscape:window-width="1680"
     inkscape:window-height="1026"
     id="namedview4"
     showgrid="false"
     inkscape:zoom="1.829495"
     inkscape:cx="363.75626"
     inkscape:cy="62.837502"
     inkscape:window-x="0"
     inkscape:window-y="24"
     inkscape:window-maximized="1"
     inkscape:current-layer="g10" /><g
     id="g10"
     inkscape:groupmode="layer"
     inkscape:label="ink_ext_XXXXXX"
     transform="matrix(1.25,0,0,-1.25,0,125.675)"><g
       id="g12"
       transform="scale(0.1,0.1)"><path
         d="m 203.977,657.785 577.555,0 0,11.7109 -577.555,0 0,-11.7109 z"
         style="fill:#00674c;fill-opacity:1;fill-rule:nonzero;stroke:none"
         id="path14" /><path
         d="m 220.715,675.379 544.063,0 0,5.02344 -544.063,0 0,-5.02344 z"
         style="fill:#00674c;fill-opacity:1;fill-rule:nonzero;stroke:none"
         id="path16" /><path
         d="m 240.82,685.41 503.887,0 0,5.02734 -503.887,0 0,-5.02734 z"
         style="fill:#00674c;fill-opacity:1;fill-rule:nonzero;stroke:none"
         id="path18" /><path
         d="m 260.906,697.121 463.711,0 0,3.35156 -463.711,0 0,-3.35156 z"
         style="fill:#00674c;fill-opacity:1;fill-rule:nonzero;stroke:none"
         id="path20" /><path
         d="m 259.648,791.293 465.387,0.125 0.125,3.637 -465.512,0.015 0,-3.777"
         style="fill:#00674c;fill-opacity:1;fill-rule:nonzero;stroke:none"
         id="path22" /><path
         d="m 259.48,798.156 c 1.215,0.25 237.508,37.25 237.508,37.25 l -0.965,0 c 0,0 225.942,-37.23 228.094,-37.465 1.535,-0.16 3.016,5.493 0.985,5.954 -4.262,0.98 -228.098,37.464 -228.098,37.464 l -0.461,0.075 -0.48,-0.075 c 0,0 -234.993,-36.859 -237.508,-37.25 -1.637,-0.25 -0.285,-6.203 0.925,-5.953"
         style="fill:#00674c;fill-opacity:1;fill-rule:nonzero;stroke:none"
         id="path24" /><path
         d="m 327.441,799.461 168.668,25.344 160.079,-25.129 17.984,0 -177.703,29.32 -191.414,-29.535 22.386,0"
         style="fill:#00674c;fill-opacity:1;fill-rule:nonzero;stroke:none"
         id="path26" /><path
         d="m 304.398,587.539 0.33984,0 0,0.33984 -0.33984,0 0,-0.33984 z"
         style="fill:#00674c;fill-opacity:1;fill-rule:nonzero;stroke:none"
         id="path28" /><path
         d="m 799.734,648.379 -613.429,0 2.816,-5.492 c 1.141,-2.211 2.192,-4.188 3.227,-6.098 6.164,-11.492 9.89,-18.43 9.89,-41.562 l 0,-218.114 -0.015,-2.675 c -0.145,-18.786 -0.41,-50.227 53.007,-86.375 l 238.965,-162.18 2.121,-1.445 c 0,0.019 2.122,1.445 2.122,1.445 l 238.539,162.18 c 53.418,36.148 53.152,67.589 53.007,86.375 l -0.015,2.675 0,218.114 c 0,23.132 3.726,30.07 9.89,41.562 1.036,1.91 2.086,3.887 3.227,6.098 l 2.816,5.492 -6.168,0 z m -17.304,-53.152 0,-218.114 0.015,-2.726 c 0.145,-17.289 0.375,-46.199 -49.691,-80.086 L 496.316,133.547 259.453,294.301 c -50.066,33.887 -49.836,62.797 -49.691,80.086 l 0.015,2.726 0,218.114 c 0,25.023 -4.293,33.027 -10.8,45.128 -0.09,0.161 -0.176,0.321 -0.25,0.481 l 594.753,0 c -0.07,-0.16 -0.16,-0.32 -0.25,-0.481 -6.503,-12.101 -10.8,-20.105 -10.8,-45.128"
         style="fill:#00674c;fill-opacity:1;fill-rule:nonzero;stroke:none"
         id="path30" /><path
         d="m 627.309,344.953 c -2.157,-2.461 -3.407,-2.476 -3.407,-2.476 -1.675,0.336 -1.656,1.05 -3.312,2.601 -1.66,1.551 -0.074,2.672 1.691,4.473 43.313,44.152 98.782,65.289 103.594,64.668 -26.379,-9.004 -71.152,-38.09 -98.566,-69.266"
         style="fill:#00674c;fill-opacity:1;fill-rule:nonzero;stroke:none"
         id="path32" /><path
         d="m 716.449,404.172 c 1.891,0 6.063,2.926 8.934,1.836 -9.985,-6.434 -11.231,-2.887 -19.074,-6.024 1.695,2.246 4.902,4.188 10.14,4.188"
         style="fill:#00674c;fill-opacity:1;fill-rule:nonzero;stroke:none"
         id="path34" /><path
         d="m 721.703,398.648 c -1.07,-2.425 -2.316,-2.636 -4.422,-3.476 -14.097,-5.633 -15.898,0.215 -25.379,-4.223 7.395,5.899 13.578,2.352 21.407,5.489 2.101,0.835 5.238,2.3 8.394,2.21"
         style="fill:#00674c;fill-opacity:1;fill-rule:nonzero;stroke:none"
         id="path36" /><path
         d="m 718.754,392.453 c -11.086,-13.812 -29.715,-5.863 -42.582,-12.547 3.652,4.172 16.414,6.489 26.683,7.309 9.606,0.801 10.836,2.281 15.899,5.238"
         style="fill:#00674c;fill-opacity:1;fill-rule:nonzero;stroke:none"
         id="path38" /><path
         d="m 662.105,368.852 c 2.247,5.808 15.528,7.949 21.907,8.125 7.949,0.195 16.738,-1.481 31.336,5.597 -19.61,-15.863 -44.508,-6.648 -53.243,-13.722"
         style="fill:#00674c;fill-opacity:1;fill-rule:nonzero;stroke:none"
         id="path40" /><path
         d="m 711.43,374.668 c -7.328,-5.203 -12.176,-8.734 -22.172,-10.871 -4.637,-1 -11.516,-1.481 -24.492,-2.32 -7.039,-0.446 -9.696,-1.676 -15.719,-4.008 7.359,7.039 15.969,7.789 25.344,9.465 12.726,1.336 22.367,-0.59 37.039,7.734"
         style="fill:#00674c;fill-opacity:1;fill-rule:nonzero;stroke:none"
         id="path42" /><path
         d="m 704.523,358.973 c -2.351,-4.008 -4.918,-5.524 -8.929,-8.535 -1.336,-2.016 2.031,-4.657 0,-8.379 -4.883,0.589 -2.781,4.367 -6.703,5.703 0.679,3.011 7.058,1.16 12.05,10.035 -3.742,-2.176 -10.195,-4.012 -14.421,-4.883 -18.821,-3.992 -33.454,2.887 -48.516,-7.168 l -3.352,-1.336 c 14.903,16.348 38.5,9.25 55.219,13.317 5.012,1.211 11.746,3.421 16.434,7.109 0,0 -0.782,-4.527 -1.782,-5.863"
         style="fill:#00674c;fill-opacity:1;fill-rule:nonzero;stroke:none"
         id="path44" /><path
         d="m 625.949,332.695 c 1.156,-1.34 1.356,-3.015 2.672,-1.015 8.68,13.222 24.777,16.414 40.516,14.062 13.062,-2.336 24.437,-7.703 37.164,-10.035 9.711,-1.676 18.41,-3.691 28.801,-3.691 1.855,-3.797 5.687,-5.688 9.039,-7.36 1.39,-0.625 2.226,-2.301 -2.157,-1.89 l -107.339,-0.125 c -2.102,-1.746 1.875,-3.207 -1.067,-4.688 l -13.316,0 c -2.352,1.356 1.336,3.352 -0.676,5.027 l -109.816,0 c 1.675,2.012 2.675,5.704 5.687,6.364 9.035,1.336 15.043,2.172 25.793,6.699 10.727,4.512 30.797,12.051 47.535,13.727 14.723,1.335 29.461,-4.028 37.164,-17.075"
         style="fill:#00674c;fill-opacity:1;fill-rule:nonzero;stroke:none"
         id="path46" /><path
         d="m 614.23,316.953 c 2.672,-0.336 -0.339,-3.348 2.352,-3.687 l 21.602,0.089 c 3.136,0 0,3.348 2.836,3.348 l 104.929,0 c 1.586,-0.121 1.891,-5.023 0.055,-4.918 l -97.445,0 c -4.102,-0.105 2.191,-4.918 -3.457,-4.707 l -36.559,-0.176 c -2.992,0.391 1.391,4.368 -4.027,4.368 -4.688,-3.692 -8.36,-8.04 -12.051,-12.387 0,-0.34 0,-1.02 0.68,-1.02 17.734,8.379 40.171,1.34 58.585,7.383 -4.027,-3.031 -9.375,-4.367 -14.402,-5.367 -18.41,-4.012 -41.851,1.676 -55.574,-13.723 0,-0.34 0,-1.015 0.34,-1.015 10.711,6.699 21.691,7.589 34.754,7.914 6.683,0.336 15.062,1.461 23.492,2.812 -20.086,-10.39 -48.551,0 -65.289,-19.426 l 0.34,-0.339 c 5.683,1.015 9.23,5.863 15.398,6.703 14.082,1.906 28.465,3.351 42.527,6.363 -6.218,-2.176 -9.39,-3.207 -11.031,-3.637 -3.972,-1.051 -12.976,-3.976 -28.465,-5.863 -6.773,-0.82 -11.925,-3.602 -16.418,-5.563 -4.507,-1.976 -9.035,-6.042 -11.726,-10.39 0.676,-1.336 2.015,0 2.691,0.34 15.403,14.062 38.84,9.711 56.574,17.75 -2.246,-4.028 -13.332,-6.114 -18.359,-7.575 -7.164,-2.101 -16.078,-2.886 -23.848,-6.078 -15.273,-6.273 -19.91,-5.007 -34.738,-35.988 -2.301,-4.812 -3.406,-7.289 -6.078,-9.625 -8.379,-3.348 -16.078,-9.035 -22.102,-16.074 2.332,5.703 6.024,12.387 10.372,18.07 0,0.34 -0.336,-1.996 0.679,-2.672 3.332,3.352 9.375,2.672 11.371,7.7 6.364,10.39 11.391,21.765 18.43,31.816 10.711,17.414 24.437,33.473 39.836,47.875 0.34,0.34 0,1 0,1.676 -2.691,1 -5.363,1 -8.039,0 -17.074,-17.414 -29.125,-37.84 -42.188,-56.25 -3.672,-4.692 -8.023,-11.551 -11.691,-16.239 3.348,5.864 27.535,43.278 24.754,38.997 -2.777,-4.258 14.723,21.765 22.426,31.816 0.336,1 -0.055,2.086 -0.735,2.426 l -78.621,-0.09 c -1.726,0 -1.515,5.363 0.34,5.363 l 107.48,0"
         style="fill:#00674c;fill-opacity:1;fill-rule:nonzero;stroke:none"
         id="path48" /><path
         d="m 528.117,306.66 c 0.84,0.055 12.977,1.246 12.977,1.246 2.086,0 2.726,-0.836 3.351,-1.871 0.625,-1.051 1.461,-2.512 2.086,-3.562 0.625,-1.055 0.625,-1.871 -0.836,-2.926 -1.465,-1.051 -5.437,-4.188 -6.703,-5.024 -1.25,-0.839 -1.551,-1.8 -0.625,-3.351 0.625,-1.035 1.266,-1.461 2.516,-1.035 1.265,0.41 7.109,2.711 8.785,3.332 1.676,0.644 2.105,0.429 2.941,-0.621 0.836,-1.055 2.922,-3.352 3.547,-4.192 0.625,-0.836 0.02,-1.496 -0.836,-2.707 -1.465,-2.105 -3.351,-5.027 -4.191,-6.078 -0.836,-1.035 -1.246,-2.516 0,-3.547 1.266,-1.051 2.316,-1.48 3.566,-0.64 1.246,0.836 6.489,4.613 7.539,5.453 -0.64,-1.891 -1.05,-2.301 -1.265,-3.137 -1.461,-1.48 -5.649,-4.812 -6.489,-5.457 -0.835,-0.621 -2.085,-1.246 -3.546,-0.195 -1.481,1.035 -4.618,3.976 -5.239,4.812 -0.625,0.84 -1.25,2.086 -0.41,3.137 0.836,1.035 4.383,5.437 5.223,6.488 0.836,1.035 0.621,1.871 0,2.926 -0.625,1.051 -1.461,1.676 -2.711,1.246 -1.266,-0.41 -6.703,-2.922 -7.754,-3.332 -1.051,-0.43 -2.086,-0.84 -2.922,0.195 -0.84,1.051 -2.726,4.403 -3.351,5.453 -0.625,1.036 -0.215,1.676 0.835,2.512 1.055,0.82 5.223,4.387 6.278,5.227 1.051,0.836 1.051,1.672 0.426,2.726 -0.641,1.032 -1.266,2.082 -2.512,1.871 -1.266,-0.199 -8.164,-1.461 -9.215,-1.461 -1.055,0 -0.84,1.262 -1.465,2.512"
         style="fill:#00674c;fill-opacity:1;fill-rule:nonzero;stroke:none"
         id="path50" /><path
         d="m 571.645,259.367 c 0,0 3.566,1.461 4.597,2.086 -0.621,-1.676 -0.406,-1.461 -1.031,-2.496 -0.641,-1.051 -1.481,-0.641 -3.566,0.41"
         style="fill:#00674c;fill-opacity:1;fill-rule:nonzero;stroke:none"
         id="path52" /><path
         d="m 584.199,265.016 c 0,0 -1.246,-5.864 -1.461,-7.735 -0.215,-1.89 0.41,-3.351 1.461,-3.972 1.055,-0.645 6.489,-1.676 7.539,-1.891 1.035,-0.215 2.301,0 2.926,1.461 0.621,1.461 2.301,6.273 2.922,7.734 0.641,1.481 1.695,2.336 2.727,2.106 1.89,-0.43 2.3,-1.266 2.3,-3.137 0,-1.891 0.625,-6.488 0.836,-7.754 0.215,-1.25 1.266,-2.086 2.516,-2.086 l 7.539,0 c 1.246,0 2.301,0.215 2.301,2.086 0,1.891 0.41,6.914 0.621,8.375 0.215,1.465 1.051,1.891 2.515,2.086 1.461,0.215 2.727,0.215 3.352,-1.461 0.621,-1.676 2.512,-6.898 3.137,-7.949 0.621,-1.051 1.461,-1.051 3.136,-0.836 1.672,0.211 5.434,1.461 7.11,1.676 1.676,0.211 1.461,0.836 1.051,2.511 -0.426,1.676 -1.262,7.114 -1.461,8.575 -0.211,1.461 0.625,2.297 2.086,2.941 1.461,0.621 2.921,0.621 3.976,-0.84 1.051,-1.48 3.352,-5.648 4.188,-6.703 0.836,-1.051 2.086,-1.461 3.761,-0.621 1.676,0.836 5.864,2.922 7.325,3.973 1.461,1.05 1.461,1.25 0.625,2.711 -0.84,1.48 -3.137,6.078 -3.762,7.324 -0.625,1.265 -0.215,2.726 1.461,3.976 1.676,1.266 2.726,1.676 4.402,0.211 1.676,-1.461 5.027,-4.187 6.063,-5.023 1.05,-0.84 2.101,-0.625 2.937,0 0.84,0.641 4.602,4.187 5.438,5.453 0.839,1.246 0.625,1.676 -0.426,2.922 -1.035,1.25 -4.602,5.027 -5.223,5.863 -0.625,0.84 -1.051,2.516 0,3.977 1.051,1.461 2.922,1.676 4.188,1.035 l 7.113,-3.547 c 1.246,-0.625 2.707,-0.215 3.137,0.621 0.41,0.84 3.136,5.438 3.547,6.488 0.425,1.051 0.214,2.086 -1.036,2.731 -1.265,0.621 -6.078,3.973 -7.113,4.598 -1.051,0.621 -1.051,2.296 -0.426,3.562 0.625,1.25 2.301,1.035 3.352,0.84 1.051,-0.215 6.898,-1.481 8.379,-1.676 1.461,-0.215 1.031,1.461 1.246,2.512 -1.461,0.625 -3.352,1.25 -3.352,1.25 0,0 -8.179,0.57 -9.839,0.211 -1.872,-0.426 -2.708,-1.051 -3.333,-2.102 -0.64,-1.035 -1.48,-3.137 0.836,-4.597 2.301,-1.461 5.012,-3.352 6.063,-4.192 1.051,-0.836 1.676,-1.871 0.625,-3.973 -1.035,-2.085 -1.871,-3.351 -3.762,-2.511 -1.89,0.836 -5.652,2.511 -6.918,3.136 -1.246,0.641 -2.496,0.641 -3.332,-0.199 -0.836,-0.836 -2.316,-2.726 -2.941,-3.347 -0.621,-0.625 -1.031,-2.301 0.215,-3.567 1.246,-1.25 3.761,-3.976 5.027,-5.437 1.246,-1.461 1.246,-2.512 0.41,-3.352 -0.84,-0.836 -2.086,-1.461 -2.711,-2.297 -0.64,-0.84 -2.101,-1.25 -3.562,0.211 -1.465,1.465 -3.762,3.352 -5.028,4.387 -1.25,1.051 -2.515,1.266 -3.976,0.215 -1.461,-1.055 -3.352,-2.301 -4.598,-3.352 -1.265,-1.051 -1.051,-1.461 -0.43,-3.137 0.645,-1.675 2.731,-6.273 3.352,-7.539 0.645,-1.25 0.43,-2.086 -0.621,-2.711 -1.055,-0.625 -1.461,-1.05 -2.731,-1.46 -1.246,-0.426 -2.296,0 -3.332,1.46 -1.05,1.461 -2.726,3.977 -3.562,5.438 -0.84,1.461 -1.891,1.891 -3.566,1.246 -1.676,-0.621 -3.762,-1.461 -5.223,-2.086 -1.461,-0.621 -1.676,-1.246 -1.266,-2.922 0.43,-1.676 1.266,-6.703 1.481,-7.754 0.195,-1.031 0.195,-2.086 -1.051,-2.511 -1.25,-0.411 -2.301,-0.84 -3.352,-1.036 -1.05,-0.214 -2.3,0.196 -2.726,1.676 -0.41,1.461 -2.086,5.438 -2.301,6.899 -0.195,1.461 -1.246,2.3 -2.922,2.086 -1.445,-0.18 -3.762,-0.411 -5.242,-0.625 -1.461,-0.215 -2.301,-1.246 -2.086,-2.512 0.215,-1.25 -0.41,-6.899 -0.621,-8.164 -0.215,-1.246 -1.055,-1.656 -2.301,-1.871 -1.265,-0.215 -2.301,0.215 -3.351,0.215 -1.051,0 -1.461,1.031 -1.676,1.871 -0.211,0.836 -0.621,3.972 -0.836,5.863 -0.215,1.891 -0.625,4.187 -1.676,4.383 -1.051,0.215 -3.137,0.234 -4.187,0.429 -2.301,0.411 -3.567,-0.265 -3.977,-1.46 -0.84,-2.516 -2.086,-6.079 -2.301,-7.114 -0.211,-1.051 -0.621,-2.316 -1.886,-2.316 -1.25,0 -3.762,0.64 -4.598,1.051 -0.84,0.429 -0.84,1.461 -0.625,2.3 0.215,0.836 0.625,4.618 1.246,8.164 l -3.762,-1.464"
         style="fill:#00674c;fill-opacity:1;fill-rule:nonzero;stroke:none"
         id="path54" /><path
         d="m 522.051,333.863 c 0,0 2.926,0.215 3.566,0.41 0.621,0.215 0.196,2.512 0.41,3.778 0.211,1.25 0.426,2.086 1.891,2.086 1.461,0 5.648,0.625 7.324,0.625 1.676,0 3.137,0.64 3.332,2.316 0.215,1.656 0.43,2.707 0.43,4.383 0,1.676 -0.215,2.73 -2.086,3.352 -1.891,0.625 -6.078,2.726 -7.328,3.136 -1.266,0.43 -1.672,1.055 -1.477,2.301 0.211,1.266 0.426,2.301 0.641,3.137 0.195,0.84 0.836,2.301 2.301,1.89 1.461,-0.429 6.699,-1.25 7.949,-1.461 1.246,-0.214 2.512,-0.429 3.137,0.836 0.621,1.246 1.265,2.922 1.886,4.383 0.625,1.465 0.411,2.301 -0.836,3.141 -1.265,0.836 -6.078,4.187 -7.113,5.023 -1.051,0.84 -0.836,1.461 -0.426,2.301 0.426,0.836 1.051,1.676 1.676,2.512 0.621,0.84 1.461,1.265 2.512,0.84 1.051,-0.411 5.648,-2.711 6.898,-3.137 1.266,-0.41 2.942,-0.215 3.778,0.836 0.839,1.051 2.515,3.351 3.547,4.402 1.05,1.035 0.625,1.871 -0.411,3.137 -1.05,1.25 -4.402,5.223 -5.238,6.273 -0.84,1.055 -0.84,2.086 -0.195,2.711 0.621,0.641 2.086,1.481 2.922,2.102 0.836,0.625 1.675,0.215 2.3,-0.426 0.622,-0.625 4.813,-4.172 5.649,-4.812 0.84,-0.625 2.086,-1.247 3.137,-0.411 1.05,0.836 4.191,3.352 5.027,4.188 0.836,0.84 1.246,1.461 0.625,2.926 -0.625,1.461 -2.926,6.488 -3.352,7.734 -0.41,1.266 0,1.48 0.621,2.102 0.645,0.625 2.516,1.675 3.567,2.3 1.051,0.625 1.676,-0.41 2.301,-1.246 0.621,-0.84 4.187,-5.652 5.027,-6.703 0.836,-1.051 1.887,-0.625 3.348,0 1.461,0.625 3.761,1.461 4.812,2.086 1.055,0.621 1.25,1.461 1.055,2.297 -0.215,0.84 -1.27,5.652 -1.68,7.328 -0.426,1.676 0,2.941 1.035,3.137 1.055,0.215 3.782,1.051 4.617,1.265 0.836,0.215 2.086,-1.461 2.301,-2.515 0.196,-1.051 2.082,-5.024 2.512,-6.059 0.41,-1.051 1.25,-2.316 2.711,-2.101 1.461,0.211 4.613,0.425 5.648,0.425 1.051,0 1.676,0.84 1.676,2.301 0,1.461 0.625,6.059 0.84,7.52 0.211,1.48 1.262,2.726 2.727,2.726 1.46,0 1.46,0.215 2.511,0 1.035,-0.211 1.461,-1.461 1.676,-2.922 0.195,-1.48 0.836,-5.648 0.836,-6.914 0,-1.25 0.625,-2.3 1.66,-2.515 1.051,-0.196 4.402,-0.621 5.649,-0.836 1.265,-0.196 2.316,0.836 2.726,2.101 0.43,1.25 2.301,5.848 2.926,7.328 0.641,1.461 1.266,1.676 2.101,1.461 0.836,-0.214 2.086,-0.429 3.352,-0.839 1.246,-0.426 1.246,-1.887 1.031,-2.922 -0.195,-1.051 -1.031,-6.078 -1.246,-7.129 -0.215,-1.035 -0.215,-2.301 0.836,-2.711 1.055,-0.426 4.192,-1.676 5.652,-2.297 1.461,-0.645 2.512,1.031 3.137,2.086 0.625,1.051 2.516,3.973 3.137,5.023 0.625,1.036 1.461,2.086 3.351,1.461 1.891,-0.621 1.891,-0.836 2.922,-1.461 1.051,-0.621 1.051,-2.101 0.43,-3.351 -0.625,-1.266 -2.301,-5.649 -2.941,-7.11 -0.625,-1.461 -0.411,-1.89 0.425,-2.515 0.84,-0.621 4.192,-2.512 5.227,-3.137 1.051,-0.621 2.102,0 2.937,0.625 0.84,0.625 5.028,3.566 5.848,4.598 0.84,1.051 2.317,1.461 2.942,0.84 0.625,-0.625 1.05,-1.25 1.871,-2.301 0.836,-1.051 0.64,-1.676 -0.196,-2.727 -0.84,-1.035 -2.726,-3.332 -3.136,-4.383 1.461,-2.086 6.058,1.887 6.058,1.887 0,0 1.266,1.461 1.891,3.137 0.625,1.676 1.035,1.676 -0.215,2.926 -1.246,1.246 -3.977,3.347 -5.027,3.972 -1.032,0.625 -2.512,0.43 -3.348,-0.41 -0.84,-0.836 -5.438,-4.187 -6.277,-5.027 -0.836,-0.836 -2.297,-1.461 -4.188,0.215 -1.871,1.675 -1.25,2.3 -0.84,3.136 0.43,0.84 2.321,5.223 2.942,7.114 0.625,1.89 1.465,3.136 0.215,3.972 -1.266,0.84 -4.813,2.516 -6.293,3.352 -1.461,0.84 -3.137,1.25 -3.973,-0.211 -0.836,-1.465 -3.352,-6.063 -4.387,-7.543 -1.051,-1.461 -1.461,-1.461 -3.347,-0.836 -1.891,0.641 -1.676,1.891 -1.465,3.566 0.199,1.672 0.625,5.239 1.035,7.11 0.43,1.89 0,2.726 -1.461,3.351 -1.461,0.625 -5.848,1.461 -7.324,1.891 -1.465,0.41 -2.711,-0.215 -3.137,-1.676 -0.41,-1.461 -2.301,-6.703 -2.926,-8.164 -0.625,-1.461 -1.265,-1.461 -2.941,-1.265 -1.656,0.214 -1.871,0.425 -2.086,1.675 -0.211,1.266 -1.051,7.754 -1.246,9.43 -0.215,1.676 -2.106,2.086 -2.727,2.086 l -6.488,0 c -1.676,0 -2.516,-0.84 -2.516,-2.301 0,-1.461 -1.031,-7.539 -1.031,-9 0,-1.465 -0.84,-1.676 -2.516,-1.89 -1.671,-0.196 -2.316,0.425 -2.726,1.48 -0.41,1.031 -2.297,6.273 -3.137,7.949 -0.836,1.676 -1.676,2.297 -4.187,1.676 -2.512,-0.645 -5.028,-1.266 -6.703,-1.676 -1.676,-0.429 -2.297,-1.461 -1.872,-3.137 0.411,-1.675 1.25,-6.917 1.676,-8.378 0.41,-1.461 -0.215,-1.891 -1.48,-2.727 -1.246,-0.84 -2.922,-0.625 -3.758,0.215 -0.84,0.836 -4.813,6.273 -5.652,7.539 -0.836,1.246 -2.297,1.461 -3.762,0.625 -1.461,-0.84 -4.598,-2.731 -5.649,-3.352 -1.05,-0.625 -1.675,-1.675 -0.839,-3.351 0.839,-1.676 2.726,-6.488 3.351,-7.949 0.625,-1.461 0.41,-2.086 -1.461,-3.547 -1.89,-1.481 -2.941,-1.266 -3.972,-0.43 -1.055,0.84 -4.832,4.188 -6.079,5.242 -1.25,1.031 -2.086,1.461 -3.351,0.41 -1.25,-1.054 -4.387,-4.191 -5.652,-5.222 -1.247,-1.051 -0.211,-2.301 0.839,-3.137 1.051,-0.84 4.403,-5.652 5.239,-6.488 0.839,-0.84 0.839,-2.106 -0.426,-3.782 -1.25,-1.671 -0.84,-2.082 -3.547,-1.246 -2.727,0.836 -5.242,2.301 -7.539,3.352 -2.301,1.031 -3.352,0.41 -4.402,-1.481 -1.036,-1.871 -2.086,-3.972 -2.711,-5.007 -0.625,-1.051 -0.625,-3.137 0.41,-3.778 1.051,-0.625 6.703,-4.812 7.754,-5.222 1.035,-0.43 1.035,-1.266 0.41,-2.731 -0.625,-1.461 -0.84,-2.512 -3.352,-2.082 -2.511,0.41 -6.273,1.246 -7.734,1.246 -1.461,0 -3.141,0.215 -3.762,-2.086 -0.64,-2.297 -1.051,-4.187 -1.265,-5.433 -0.215,-1.27 -0.411,-2.106 1.675,-3.141 2.086,-1.051 6.7,-2.937 8.164,-3.562 1.461,-0.625 1.672,-1.25 1.461,-3.567 -0.214,-2.297 -1.461,-2.492 -2.925,-2.707 -1.461,-0.215 -5.649,-0.625 -7.539,-0.84 -1.887,-0.215 -3.137,-0.625 -3.137,-2.726 0,-2.086 -0.211,-3.762 0,-6.274"
         style="fill:#00674c;fill-opacity:1;fill-rule:nonzero;stroke:none"
         id="path56" /><path
         d="m 591.25,558.188 c -7.699,-4.348 -14.562,-12.602 -15.008,-20.926 -0.41,-7.895 1.356,-12.582 8.645,-16.239 8.949,-4.472 24.508,4.223 29.445,10.161 3.957,4.777 7.324,9.429 6.719,15.953 -6.504,11.461 -18.75,17.414 -29.801,11.051"
         style="fill:#00674c;fill-opacity:1;fill-rule:nonzero;stroke:none"
         id="path58" /><path
         d="m 689.355,563.543 c -4.011,2.676 -8.683,6.773 -21.105,5.363 -14.027,-1.621 -26.113,-14.062 -31.121,-27.465 1,-8.359 5.348,-16.738 12.387,-21.761 7.023,-6.028 17.398,-6.364 26.113,-3.672 9.715,4.687 18.074,12.707 21.086,23.097 2.015,8.7 0,18.75 -7.36,24.438"
         style="fill:#00674c;fill-opacity:1;fill-rule:nonzero;stroke:none"
         id="path60" /><path
         d="m 496.313,644.891 0,-213.09 288.429,0 1.602,176.336 c 0,0 8.929,33.117 13.386,36.468 -22.867,0 -303.417,0.286 -303.417,0.286 M 710.449,530.066 c -4.687,-11.39 -13.937,-29.875 -40.511,-34.488 -15.418,-2.676 -26.79,4.688 -34.153,16.399 -3.687,4.687 -5.398,10.175 -8.414,15.203 l -0.07,0.461 c -9.375,-13.063 -23.992,-26.039 -41.406,-24.364 -10.051,0.996 -20.426,8.039 -23.438,18.411 -6.363,17.078 -0.855,35.238 12.531,46.753 8.27,7.094 19.606,12.172 30.657,9.161 10.375,-2.332 18.414,-11.707 23.437,-20.747 10.375,14.047 25.633,29.375 47.219,30.122 16.324,0.574 28.785,-8.036 34.488,-21.422 4.672,-10.711 4.012,-24.778 -0.34,-35.489"
         style="fill:#00674c;fill-opacity:1;fill-rule:nonzero;stroke:none"
         id="path62" /><path
         d="m 204.957,431.797 c 0.07,-9.484 1.606,-31.246 1.606,-75.899 6.699,-42.402 55.804,-65.839 68.07,-75.324 C 286.91,271.094 496.309,129 496.309,129 l 0,302.797 -291.352,0 z M 390.008,284.891 c -6.899,-3.137 -12.836,-0.02 -15.063,1.476 -1.89,1.25 -6.273,7.738 -5.437,21.121 -14.028,-16.734 -30.766,-25.734 -46.039,-20.922 -16.809,5.293 -14.864,28.676 -13.602,36.625 0.555,3.512 6.899,27.629 22.801,42.907 32.867,31.562 57.621,7.609 60.902,4.168 4.598,6.078 6.489,7.754 9.2,9.429 4.703,2.887 12.566,3.547 11.511,-6.914 -1.015,-10.195 -12.976,-25.312 -21.136,-35.773 -8.165,-10.465 -10.481,-18.539 -7.739,-26.578 3.137,-9.215 8.574,-8.16 14.227,-5.239 6.984,3.618 13.812,10.676 19.25,18.411 0.996,1.425 2.402,-0.161 2.316,-0.622 -7.594,-24.187 -24.277,-34.937 -31.191,-38.089"
         style="fill:#00674c;fill-opacity:1;fill-rule:nonzero;stroke:none"
         id="path64" /><path
         d="m 366.574,369.645 c -9.379,-2.192 -18.629,-9.836 -24.687,-19.676 -4.582,-7.399 -16.539,-25.313 -12.141,-37.449 4.637,-12.817 13.512,-11.102 22.391,-6.079 12.547,7.129 17.574,17.379 21.761,22.192 5.864,18.199 13.192,29.305 14.028,31.797 -3.156,6.293 -12.352,11.3 -21.352,9.215"
         style="fill:#00674c;fill-opacity:1;fill-rule:nonzero;stroke:none"
         id="path66" /><path
         d="m 267.191,700.48 -1.695,0 c 0.5,0 1.09,0 1.695,0"
         style="fill:#00674c;fill-opacity:1;fill-rule:nonzero;stroke:none"
         id="path68" /><path
         d="m 705.988,700.48 13.387,0 c -2.301,0 -4.812,1.25 -4.812,3.977 l 0,59.641 c 0,3.347 -0.625,4.808 0.835,6.273 1.461,1.461 3.352,1.461 3.352,3.352 l 0,9.625 c 0,2.922 -0.766,3.972 -4.117,3.972 l -445.567,0 c -2.101,0 -2.937,-0.41 -2.937,-2.711 0,-2.316 -0.215,-7.539 0,-9.64 0.211,-2.086 0.621,-3.332 3.348,-3.332 2.726,0 3.136,-1.055 3.136,-3.141 l 0,-65.93 c 0,-1.836 -2.957,-2.066 -5.418,-2.086 l 13.797,0 c -1.89,0 -2.512,0.84 -2.512,4.602 0,2.102 1.461,54.184 1.461,59.426 0,1.051 -0.23,2.262 -2.086,2.512 -1.48,0.214 -2.3,4.617 2.512,4.617 l 13.172,0 c 4.602,0 3.141,-4.403 1.465,-4.617 -1.391,-0.161 -1.871,-1.446 -1.871,-3.762 0,-4.598 1.137,-43.938 1.672,-59.016 0,-3.137 -0.426,-3.762 -2.942,-3.762 l 41.977,0 c -1.891,0 -2.512,0.84 -2.512,4.602 0,2.102 1.461,54.184 1.461,59.426 0,1.051 -0.25,2.262 -2.101,2.512 -1.465,0.214 -2.926,5.027 1.886,5.027 l 13.192,0 c 4.597,0 3.761,-4.813 2.086,-5.027 -1.391,-0.161 -1.891,-1.446 -1.891,-3.762 0,-4.598 1.141,-43.938 1.676,-59.016 0,-3.137 -0.41,-3.762 -2.922,-3.762 l 41.902,0 c -1.871,0 -2.512,0.84 -2.512,4.602 0,2.102 1.481,54.184 1.481,59.426 0,1.051 -0.25,2.262 -2.106,2.512 -1.46,0.214 -2.921,5.027 1.891,5.027 l 13.188,0 c 3.546,0 3.136,-5.027 1.461,-5.223 -1.387,-0.179 -1.262,-1.25 -1.262,-3.566 0,-4.598 1.14,-43.938 1.672,-59.016 0,-3.137 -0.41,-3.762 -2.922,-3.762 l 41.547,0 c -1.887,0 -2.512,0.84 -2.512,4.602 0,2.102 1.461,54.184 1.461,59.426 0,1.051 -0.25,2.262 -2.086,2.512 -1.477,0.214 -2.316,4.617 2.496,4.617 l 13.191,0 c 4.598,0 3.137,-4.403 1.461,-4.617 -1.39,-0.161 -1.871,-1.446 -1.871,-3.762 0,-4.598 1.141,-43.938 1.657,-59.016 0,-3.137 -0.411,-3.762 -2.922,-3.762 l 41.957,0 c -1.871,0 -2.516,0.84 -2.516,4.602 0,2.102 1.481,54.184 1.481,59.426 0,1.051 -0.25,2.262 -2.102,2.512 -1.461,0.214 -2.926,5.027 1.891,5.027 l 13.187,0 c 4.598,0 3.762,-4.813 2.086,-5.027 -1.391,-0.161 -1.891,-1.446 -1.891,-3.762 0,-4.598 1.141,-43.938 1.676,-59.016 0,-3.137 -0.41,-3.762 -2.922,-3.762 l 40.032,0 c -1.887,0 -2.512,0.84 -2.512,4.602 0,2.102 1.461,54.184 1.461,59.426 0,1.051 -0.25,2.262 -2.102,2.512 -1.465,0.214 -2.926,5.027 1.887,5.027 l 13.191,0 c 3.547,0 3.137,-5.027 1.461,-5.223 -1.39,-0.179 -1.265,-1.25 -1.265,-3.566 0,-4.598 1.14,-43.938 1.675,-59.016 0,-3.137 -0.41,-3.762 -2.921,-3.762 l 39.816,0 c -1.887,0 -2.512,0.84 -2.512,4.602 0,2.102 1.461,54.184 1.461,59.426 0,1.051 -0.23,2.262 -2.086,2.512 -1.461,0.214 -2.941,5.027 1.891,5.027 l 13.172,0 c 4.597,0 3.762,-4.813 2.101,-5.027 -1.406,-0.161 -1.886,-1.446 -1.886,-3.762 0,-4.598 1.14,-43.938 1.675,-59.016 0,-3.137 -0.429,-3.762 -2.941,-3.762 l 39.926,0 c -1.871,0 -2.516,0.84 -2.516,4.602 0,2.102 1.481,54.184 1.481,59.426 0,1.051 -0.25,2.262 -2.102,2.512 -1.465,0.214 -2.926,5.027 1.887,5.027 l 13.172,0 c 4.617,0 3.781,-4.813 2.105,-5.027 -1.39,-0.161 -1.89,-1.446 -1.89,-3.762 0,-4.598 1.14,-43.938 1.675,-59.016 0,-3.137 -0.41,-3.762 -2.922,-3.762 l 39.926,0 c -1.89,0 -2.515,0.84 -2.515,4.602 0,2.102 1.461,54.184 1.461,59.426 0,1.051 -0.247,2.262 -2.102,2.512 -1.461,0.214 -2.922,5.027 1.891,5.027 l 13.187,0 c 4.602,0 3.762,-4.813 2.086,-5.027 -1.391,-0.161 -1.891,-1.446 -1.891,-3.762 0,-4.598 1.145,-43.938 1.676,-59.016 0,-3.137 -0.406,-3.762 -2.922,-3.762 m 2.887,73.793 -433.355,0 c -1.336,0 -2.407,1.086 -2.407,2.422 l 0,6.063 c 0,1.32 1.071,2.406 2.407,2.406 l 433.355,0 c 1.34,0 2.406,-1.086 2.406,-2.406 l 0,-6.063 c 0,-1.336 -1.066,-2.422 -2.406,-2.422"
         style="fill:#00674c;fill-opacity:1;fill-rule:nonzero;stroke:none"
         id="path70" /><path
         d="m 255.457,95.7266 c -13.598,-4.8125 -28.09,-5.2383 -40.176,3.3515 -18,12.7619 -15.218,22.6209 -17.379,24.0629 -2.617,1.765 -5.257,-2.977 -7.519,-1.461 -2.406,1.586 -2.692,5.953 -0.43,9.625 6.918,11.425 10.18,16.754 11.942,19.465 2.71,4.171 7.183,4.097 8.363,3.546 7.734,-3.546 1.262,-7.328 -1.465,-16.953 -3.848,-13.597 -0.906,-23.097 9.625,-30.121 13.887,-9.2693 35.293,2.406 49.59,23.848 5.914,8.859 9.765,16.969 10.051,27.004 0.515,14.011 -3.137,22.586 -11.711,28.234 -7.825,5.152 -23.332,3.262 -34.328,-7.734 -1.461,-1.461 -4.633,0.98 -6.059,3.136 -2.106,3.137 0.871,6.754 1.672,7.95 1.195,1.8 7.133,5.683 15.898,7.539 14.852,3.136 25.953,0 37.254,-9 10.481,-8.344 24.258,-37.039 4.813,-67.164 -7.825,-12.102 -18.09,-21.0667 -30.141,-25.3284"
         style="fill:#00674c;fill-opacity:1;fill-rule:nonzero;stroke:none"
         id="path72" /><path
         d="m 10.9766,515.5 c -4.97269,-4.973 -0.8399,-11.16 -7.5391,-11.16 -3.90625,0 -3.5117188,2.301 -3.335937,4.742 0.179687,2.727 0.429687,28.82 0.554687,30.691 0.105469,1.731 1.62109,4.567 3.35156,4.457 5.00782,-0.265 1.67578,-3.441 4.73828,-7.253 3.19141,-4.098 9.57421,-3.172 16.18751,-3.618 l 64.4492,-3.351 c 2.7813,-0.285 4.8125,0 5.0078,3.617 0.2852,5.027 0.3047,8.664 0.5742,13.402 0.5508,10.036 -4.4765,14.797 -8.664,17.578 -9.9649,6.649 -13.3867,5.579 -11.711,10.602 1.2461,3.746 6.0782,3.426 9.2149,1.68 4.457,-2.516 8.8945,-5.012 14.2226,-8.379 5.2927,-3.352 10.3207,-4.188 8.9297,-8.36 -3.437,-10.339 -3.723,-55.308 -3.902,-58.035 -0.16,-2.3 -3.7269,-3.172 -5.3128,-3.086 -3.2969,0.235 -2.6563,3.942 -3.1875,7.953 -0.4297,3.223 -3.5859,5.844 -10.1953,6.29 l -59.1602,3.066 c -7.039,0.465 -12.5469,0.84 -14.2226,-0.836"
         style="fill:#00674c;fill-opacity:1;fill-rule:nonzero;stroke:none"
         id="path74" /><path
         d="m 76.543,613.43 c -0.5508,-2.231 -1.8164,-2.317 -4.7422,-0.551 -6.9688,4.187 -19.8203,13.098 -26.7891,18.125 -6.3984,4.617 -11.1562,6.988 3.6367,8.094 9.4844,0.711 27.3438,2.172 32.3516,2.797 2.2461,0.265 3.6367,0 3.082,-2.512 -0.7461,-3.371 -7.539,-25.953 -7.539,-25.953 m 6.7031,-21.481 c 4.457,-3.347 14.8984,-8.765 16.4492,-12.832 1.1057,-3.012 1.5157,-4.347 4.4767,-5.023 3.617,-0.84 4.918,1.015 5.293,2.777 1.39,6.418 2.137,13.492 2.797,16.758 0.554,2.777 0.269,4.453 -1.676,5.008 -2.207,0.64 -3.832,0.89 -5.309,-1.946 -3.351,-6.414 -6.4176,-2.511 -10.0348,-0.285 -1.2305,0.75 -6.1875,4.172 -7.8242,5.313 0,0 -3.7969,2.191 -2.2305,7.808 0,0 8.5547,27.25 8.6445,27.625 1.4102,4.973 1.2657,5.328 7.539,5.848 0,0 8.039,0.41 9.77,0.57 8.449,0.746 7.039,-2.996 6.664,-5.863 -0.246,-1.961 -0.246,-2.801 2.55,-3.066 4.243,-0.43 3.618,0 4.743,3.066 1.101,3.063 6.379,18.5 7.254,21.762 1.105,4.187 0.39,5.472 -1.961,6.133 -2.907,0.82 -3.692,-3.872 -8.93,-4.743 -5.027,-0.839 -17.254,-1.765 -22.3165,-2.226 0,0 -73.9336,-6.703 -76.7343,-6.973 -2.7774,-0.281 -8.6446,0 -8.9297,-1.961 -0.2657,-1.957 5.8828,-12.261 6.9883,-13.117 0,0 58.3046,-41.281 62.7773,-44.633"
         style="fill:#00674c;fill-opacity:1;fill-rule:nonzero;stroke:none"
         id="path76" /><path
         d="m 190.59,776.023 -55.238,48.75 c -4.618,3.778 -2.317,5.239 0.41,8.59 13.121,16.149 34.793,16.809 53.988,-0.625 18.199,-16.539 20.516,-38.711 9.625,-54.414 -3.832,-5.543 -4.383,-6.703 -8.785,-2.301 m -61.317,30.766 c 3.567,-2.941 43.403,-37.469 48.965,-42.476 5.578,-5.028 4.489,-8.18 1.887,-11.512 -2.922,-3.762 -4.223,-4.778 -1.887,-6.703 2.297,-1.891 6.399,0.285 7.325,1.265 0.515,0.516 17.644,21.567 20.73,25.524 20.496,26.359 20.086,52.312 -5.652,73.453 -21.922,17.984 -43.989,22.316 -68.231,-3.137 -4.812,-5.062 -23.652,-26.523 -24.918,-28.18 -1.656,-2.175 -2.172,-5.168 -0.82,-6.363 3.137,-2.711 6.348,0.426 9.84,3.563 4.187,3.761 9.215,-2.512 12.761,-5.434"
         style="fill:#00674c;fill-opacity:1;fill-rule:nonzero;stroke:none"
         id="path78" /><path
         d="m 786.551,890.695 c -0.551,1.25 -6.219,3.957 -2.297,8.164 1.246,1.336 3.883,0.856 5.543,-0.695 1.941,-1.816 23.277,-18.84 25.219,-20.656 1.66,-1.551 5.222,-3.137 2.3,-6.684 -1.871,-2.285 -7.718,2.477 -11.3,2.922 -3.352,0.43 -7.434,-5.527 -16.539,-15.273 l -15.348,-16.989 c -0.481,-0.515 -0.965,-1.035 -1.445,-1.535 -6.914,-7.394 -12.657,-17.484 -12.922,-21.652 -0.41,-6.703 0.429,-11.516 5.648,-16.113 4.352,-3.832 12.676,-5.829 20.305,-4.403 3.351,0.641 10.586,5.348 20.851,16.344 l 16.614,17.77 c 6.808,7.289 13.367,11.515 11.3,16.523 -2.261,5.187 -5.652,6.293 -1.675,9.43 1.425,1.121 3.957,0.535 5.437,-0.84 1.942,-1.817 18.68,-18.215 20.086,-19.676 5.223,-5.437 2.211,-6.328 0.84,-7.324 -3.762,-2.711 -5.367,2.601 -9.215,2.937 -3.566,0.25 -10.144,-4.382 -20.5,-15.488 0,0 -18.055,-18.82 -20.656,-20.801 -1.996,-1.531 -10.18,-9.695 -15.348,-17.914 -2.246,-3.582 -0.711,-8.429 0.43,-10.676 1.191,-2.351 1.586,-1.8 0.621,-3.972 -0.836,-1.871 -5.223,-0.215 -7.109,0.836 -3.297,1.836 -5.688,6.398 -6.703,10.465 -0.571,2.296 0.32,6.218 1.07,8.375 0.625,1.765 0.871,3.046 -0.645,3.046 -1.711,0 -3.402,0.11 -5.043,0.305 -9.5,1.16 -17.804,5.438 -23.422,10.871 -13.812,13.387 -12.972,29.93 4.602,48.77 6.773,7.234 28.465,30.551 28.465,30.551 5.863,6.253 2.832,9.214 0.836,13.382"
         style="fill:#00674c;fill-opacity:1;fill-rule:nonzero;stroke:none"
         id="path80" /><path
         d="m 863.141,786.277 c 3.867,2.477 11.461,7.254 12.761,11.086 2.442,6.879 -8.574,11.516 -2.711,15.489 2.016,1.371 3.336,2.086 6.473,-1.891 1.301,-1.621 9.836,-11.816 11.512,-14.438 1.73,-2.707 0.179,-5.488 -1.996,-10.691 -2.192,-5.207 -22.227,-55.793 -22.903,-57.734 -1.461,-4.188 -3.172,-9.571 -2.726,-10.246 0.426,-0.625 2.101,0 7.539,3.136 l 25.344,15.114 c 7.418,4.722 14.226,7.164 15.257,12.086 1.25,6.078 -2.511,10.675 -0.64,12.136 1.371,1.071 3.887,1.676 4.832,0.215 1.015,-1.625 10.461,-16.113 15.273,-23.848 2.282,-3.671 2.922,-5.652 -0.836,-6.918 -3.281,-1.085 -5.027,3.102 -9.004,3.977 -4.828,1.156 -7.539,-0.215 -14.648,-4.602 0,0 -39.035,-22.261 -54.613,-33.062 -3.496,-2.426 -5.582,-5.473 -6.078,-6.273 -2.711,-4.403 -6.684,-2.942 -8.629,-1.356 -1.907,1.551 -2.067,6.898 -0.16,11.391 l 27.199,68.425 c 0.84,1.907 1.871,4.743 1.676,5.028 -0.5,0.785 -1.801,1.336 -7.114,-3.137 0,0 -37.25,-25.328 -39.121,-29.5 -2.281,-5.043 5.043,-10.215 1.031,-12.777 -2.296,-1.465 -5.898,-1.41 -7.074,0.441 -1,1.555 -14.258,20.731 -15.312,22.371 -0.801,1.266 0.48,3.867 2.3,5.028 2.797,1.781 4.493,-4.207 9.43,-4.403 5.223,-0.195 11.801,6.754 25.524,15.489 0,0 23.546,16.988 27.414,19.464"
         style="fill:#00674c;fill-opacity:1;fill-rule:nonzero;stroke:none"
         id="path82" /><path
         d="m 947.473,646.699 c 10.871,8.789 9.215,10.055 8.785,14.227 -0.43,4.297 -0.676,5.222 2.211,5.844 1.781,0.375 3.277,-0.551 3.652,-2.282 0.66,-3.101 9.375,-30.781 9.625,-32.011 0.625,-3.137 -0.141,-4.739 -1.516,-5.098 -3.722,-0.981 -4.132,1.75 -5.808,3.832 -2.211,2.746 -4.188,3.566 -6.078,2.516 -2.317,-1.301 -9.805,-6.793 -12.336,-8.379 l -38.106,-27.039 c -1.64,-1.016 -2.316,-1.926 -2.211,-2.422 0.145,-0.625 0.961,-1.09 2.442,-1.285 l 44.578,-8.379 c 4.633,-0.817 8.484,-1.547 11.281,-1.672 4.262,-0.18 6.793,-1.18 8.809,3.137 1.461,3.136 -0.84,6.914 4.187,7.359 1.961,0.18 2.727,-0.481 3.117,-2.336 0.731,-3.332 3.852,-25.379 4.192,-26.984 0.355,-1.622 -1.106,-2.461 -2.711,-2.942 -3.566,-1.051 -4.723,1.981 -6.488,4.188 -0.801,1 -3.082,4.972 -8.785,5.867 -65.719,10.246 -89.997,18.195 -89.997,18.195 -1.336,0.235 -1.961,1.16 -2.226,2.406 -0.195,0.985 -0.66,2.891 1.191,3.872 33.067,17.785 72.192,49.386 72.192,49.386"
         style="fill:#00674c;fill-opacity:1;fill-rule:nonzero;stroke:none"
         id="path84" /><path
         d="m 976.559,543.957 c 3.972,4.402 -1.676,10.676 5.433,10.676 1.836,0 3.977,-0.34 3.977,-2.727 0.019,-1.265 2.711,-54.918 2.726,-61.101 0.02,-4.778 2.516,-8.375 -0.836,-10.676 -1.625,-1.106 -2.3,-2.086 -7.328,-3.547 -5.023,-1.48 -17.504,-4.598 -20.496,-4.617 -2.121,0 -3.012,4.348 -3.351,6.293 -0.426,2.297 11.925,3.762 17.789,11.496 6.203,8.219 4.242,16.449 3.547,30.355 -0.215,4.168 -1.247,5.219 -3.547,5.219 l -24.903,-1.051 c -4.222,0 -8.394,1.02 -8.375,-3.332 l 0.41,-7.129 c 0.016,-6.043 0.321,-8.914 3.973,-11.711 3.672,-2.656 13.281,-1.57 12.356,-4.812 -1.25,-4.402 -4.942,-4.813 -6.899,-4.813 -0.855,0 -5.027,-0.214 -7.328,-0.214 -10.551,0 -16.324,0.625 -18.84,0.839 -1.816,0.161 -5.023,1.801 -5.023,3.348 0,3.567 1.886,3.567 5.648,4.406 6.184,1.356 5.688,4.813 5.649,12.957 l -0.411,6.293 c 0.411,3.137 -0.621,3.137 -4.402,3.332 l -18.73,-0.125 c -11.391,0.125 -11.821,-0.285 -11.821,-5.722 0,-9.43 0.09,-24.598 5.028,-30.356 3.511,-4.152 11.515,-8.355 15.703,-10.035 1.765,-0.711 2.851,-2.137 1.871,-3.562 -2.352,-3.457 -2.082,-4.188 -5.223,-3.762 -2.937,0.394 -13.422,3.816 -18.625,7.113 -8.574,5.438 -10.051,5.028 -9.41,9.41 2.602,18.34 -1.676,59.481 -1.676,62.153 -0.019,2.246 4.508,5.332 6.059,5.242 3.762,-0.215 3.156,-7.133 4.812,-10.891 1.676,-3.761 5.668,-3.371 12.141,-3.351 l 55.879,1.265 c 6.879,0.016 10.891,-0.554 14.223,3.137"
         style="fill:#00674c;fill-opacity:1;fill-rule:nonzero;stroke:none"
         id="path86" /><path
         d="m 937.563,427.891 25.117,-5.578 c 10.035,-1.961 9.48,-3.352 7.254,-12.567 -3.387,-13.937 -9.77,-22.867 -23.723,-18.68 -12.246,3.672 -16.738,18.965 -15.902,29.856 0.765,10.019 1.785,8.254 7.254,6.969 m 22.601,11.445 -57.195,11.992 c -6.348,1.195 -10.285,2.586 -10.606,7.258 -0.269,4.187 -0.73,5.523 -3.902,6.129 -1.516,0.285 -4.887,-1.977 -5.297,-4.188 -0.586,-3.031 -3.137,-21.351 -3.637,-23.992 -0.445,-2.351 -0.781,-7.965 1.391,-8.93 4.477,-1.941 5.312,1.125 6.418,5.868 1.125,4.773 5.098,4.152 12.281,2.797 l 18.145,-4.473 c 3.867,-0.734 5.578,-1.16 4.742,-5.582 -0.84,-4.418 -3.582,-8.41 -6.418,-10.606 -2.512,-1.961 -10.606,-5.293 -21.496,-10.89 -17.539,-8.981 -25.934,-15.203 -28.445,-23.989 -1.125,-3.906 -0.34,-7.093 2.511,-8.914 3.903,-2.511 5.364,-0.64 5.364,0.77 0,4.168 2.39,5.469 3.566,6.469 1.941,1.675 10.32,6.418 14.508,8.375 4.172,1.961 10.035,4.476 18.129,8.093 8.09,3.637 10.32,7.54 11.441,7.254 1.106,-0.285 1.215,-26.468 22.602,-30.406 21.195,-3.906 30.336,9.41 34.312,30.406 1.746,9.25 6.914,40.336 7.254,42.137 0.426,2.211 1.356,4.207 -2.602,5.043 -7.718,1.641 -4.421,-6.488 -9.679,-10.07 -3.797,-2.707 -6.613,-1.836 -13.387,-0.551"
         style="fill:#00674c;fill-opacity:1;fill-rule:nonzero;stroke:none"
         id="path88" /><path
         d="m 885.391,359.813 c 1.586,-0.286 4.332,-1.891 4.457,-1.961 1.922,-0.891 2.156,-2.016 1.121,-4.172 -1.196,-2.547 -3.332,-0.75 -13.387,-1.961 -6.984,-0.836 -16.184,-7.254 -19.535,-13.387 -5.113,-9.391 -3.547,-20.836 3.351,-24.273 9.805,-4.903 17.024,-5.028 26.219,7.539 11.231,15.293 22.887,29.836 44.223,19.5 12.777,-6.188 21.621,-25.368 12.937,-42.567 -4.882,-9.66 -11.172,-12.441 -13.332,-17.019 -1.441,-3.051 4.172,-1.766 2.211,-5.688 -0.871,-1.765 -5.062,-2.301 -6.968,-1.39 -1.407,0.66 -3.547,0.589 -5.313,1.125 -7.52,2.226 -13.402,4.027 -17.84,6.129 -1.906,0.91 -0.91,2.726 -0.18,4.261 1.747,3.688 3.227,1.106 13.848,2.156 9.344,1.016 15.457,6.774 19.25,14.793 3.977,8.379 -0.121,20.461 -6.984,23.707 -7.879,3.723 -17.524,1.727 -25.934,-9.644 -6.703,-9.055 -15.988,-18.856 -22.601,-21.316 -7.184,-2.672 -14.223,-2.461 -22.207,1.695 -14.903,7.789 -18.36,29.316 -10.731,45.449 2.317,4.867 10.051,11.711 15.629,14.223 1.801,0.82 -1.156,3.136 -3.062,3.922 -1.09,0.445 0.835,7.254 8.359,5.293 l 16.469,-6.414"
         style="fill:#00674c;fill-opacity:1;fill-rule:nonzero;stroke:none"
         id="path90" /><path
         d="m 903.945,247.859 c 5.989,0.661 6.274,7.11 11.516,3.973 2.637,-1.586 1.871,-2.922 -0.836,-7.324 -0.609,-0.961 -15.297,-21.891 -15.777,-22.617 -1.657,-2.532 -1.942,-3.137 -5.153,-1.02 -3.062,1.996 1.035,5.223 1.035,9.625 0,1.871 -2.085,3.977 -4.382,5.652 l -55.254,37.235 c -6.688,5.453 -8.699,6.133 -12.551,3.351 -3.512,-2.531 -5.027,-6.273 -8.785,-3.136 -2.406,2.011 -3.762,2.086 -0.625,6.078 2.351,2.976 16.683,23.617 18.484,26.359 1.121,1.695 4.438,0.606 5.578,-0.215 3.762,-2.726 -2.726,-7.949 -1.89,-11.297 0.804,-3.156 2.105,-3.976 6.918,-7.113 l 57.125,-37.875 c 0,0 2.711,-1.89 4.597,-1.676"
         style="fill:#00674c;fill-opacity:1;fill-rule:nonzero;stroke:none"
         id="path92" /><path
         d="m 866.488,195.754 c 6.098,6.914 6.258,9.555 4.403,16.324 -2.317,8.36 -5.383,11.481 -3.153,14.012 0.817,0.926 5.649,3.973 7.75,0.43 0.645,-1.09 2.926,-5.243 8.039,-14.567 2.157,-3.957 4.297,-5.738 0.536,-10.14 -1.977,-2.297 -3.528,-3.528 -9.625,-10.461 l -18.411,-20.5 c -6.398,-7.254 -10.964,-11.227 -13.332,-13.918 -2.086,-2.371 -4.457,-5.543 -8.218,-2.196 0,0 -5.864,7.739 -7.114,10.035 -1.211,2.211 -3.562,5.457 -4.613,7.543 -1.195,2.387 0.891,3.383 2.102,4.403 2.711,2.297 4.812,-0.645 9,-3.977 4.617,-3.707 8.363,-3.351 12.816,1.676 0.215,0.25 0.375,0.41 0.59,0.66 4.758,5.418 4.312,5.418 -0.645,9.805 l -47.09,41.847 c -5.488,4.833 -7.539,8.79 -13.386,5.543 -3.278,-1.8 -4.793,-5.222 -7.75,-2.617 -1.481,1.301 -2.301,5.258 -1.035,6.699 1.851,2.106 18.75,20.946 21.121,23.637 1.336,1.516 5.222,0.906 6.488,-0.195 2.816,-2.481 -1.445,-6.613 -1.695,-7.664 -1.211,-4.778 1.55,-8.113 6.933,-12.856 l 47.199,-43.132 c 4.422,-3.903 4.707,-5.364 9.09,-0.391"
         style="fill:#00674c;fill-opacity:1;fill-rule:nonzero;stroke:none"
         id="path94" /><path
         d="m 761.859,172.945 c 2.211,-2.906 4.477,-3.441 6.274,-4.191 l 39.34,-14.649 c 4.918,-2.285 9,-3.335 12.781,-3.976 3.473,-0.57 7.734,3.777 11.281,0.84 2.176,-1.785 1.266,-3.352 -1.461,-5.848 -0.929,-0.875 -2.406,-1.746 -9.82,-9.43 -6.293,-6.488 -8.609,-9.109 -9.84,-10.035 -1.91,-1.441 -5.578,-1.746 -6.684,0.055 -2.941,4.758 5.774,6.648 2.282,11.246 -0.77,0.996 -3.102,1.906 -5.742,3.066 l -36.325,14.508 c -0.836,0.41 -2.886,0.305 -3.207,0.055 -0.57,-0.43 -0.679,-1.215 -0.48,-2.641 l 1.816,-27.965 c 0.5,-2.976 0.606,-5.308 1.035,-7.949 0.641,-3.777 0,-4.812 4.813,-7.949 3.777,-2.461 5.453,3.332 9.215,-1.051 1.101,-1.285 -0.305,-4.082 -2.086,-5.437 -1.25,-0.946 -5.242,-3.5667 -11.942,-7.9651 -3.996,-2.6211 -7.578,-4.6172 -10.035,-6.4726 -1.906,-1.461 -3.441,-0.9805 -4.547,0.4804 -1.711,2.2461 -2.781,3.9024 0.786,6.8281 2.085,1.7266 5.382,7.0232 4.542,12.7622 l -3.296,43.117 c -0.411,2.871 -0.411,9.41 -1.246,10.676 -1.997,2.996 -5.028,7.519 -8.59,12.546 -4.797,6.774 -6.243,10.536 -11.5,10.25 -5.188,-0.39 -10.086,-5.043 -12.973,-1.246 -1.195,1.567 -0.895,3.028 1.016,4.473 2.937,2.246 24.882,19.266 28.589,22.066 2.012,1.532 3.833,1.336 4.918,0.036 3.352,-3.973 -1.05,-5.864 -3.562,-9.625 -3.281,-4.918 0,-8.43 4.848,-14.813 1.101,-1.441 2.296,-3.012 3.652,-4.812 l 6.148,-6.95"
         style="fill:#00674c;fill-opacity:1;fill-rule:nonzero;stroke:none"
         id="path96" /><path
         d="m 397.543,84.0117 c 0.91,4.3828 0.145,7.3946 -2.922,5.8633 -2.516,-1.2656 -3.316,-2.1914 -4.812,-1.8906 -1,0.2148 -2.512,1.8906 -2.317,2.9258 0.641,3.207 8.34,8.8554 21.137,16.3238 2.516,1.461 4.457,1.196 6.437,0.786 0.622,-0.141 0.981,-0.946 0.711,-2.247 -0.16,-0.835 -2.086,-7.6636 -3.582,-12.3511 l -10.16,-49.8555 c -1.566,-7.5742 -1.976,-10.1953 5.348,-12.707 1.801,-0.625 2.086,-1.5508 1.676,-3.5625 -0.321,-1.5352 -4.672,-2.1406 -6.918,-1.6797 -2.618,0.5547 -4.293,0.3945 -14.649,2.5156 -8.719,1.8008 -8.789,3.1367 -10.035,4.4024 -0.535,0.5351 -1.586,2.4765 -1.266,3.7617 0.426,1.6758 0.821,0.1953 6.489,0.625 4.617,0.2812 5.472,1.6015 6.914,8.5898 l 7.949,38.5"
         style="fill:#00674c;fill-opacity:1;fill-rule:nonzero;stroke:none"
         id="path98" /><path
         d="m 474.969,67.0586 c 1.051,15.4922 -2.211,27.6289 -12.762,27.6289 -10.051,0 -15.703,-9.4297 -16.734,-23.0273 -0.985,-12.6211 5.843,-23.2266 16.308,-24.4727 1.977,-0.25 1.442,-0.4297 2.942,-0.4297 0,0 2.297,-2.5117 3.793,-5.6484 -5.063,-1.6758 -9.34,-1.1758 -15.094,-0.4102 -12.766,1.6758 -24.063,13.8125 -23.031,29.711 1.336,20.1054 18.199,31.7268 29.925,31.1758 21.981,-1.051 31.407,-14.4024 29.93,-38.2852 -1.25,-19.9844 -11.16,-37.6992 -25.953,-50.461 -4.598,-3.95699 -12.137,-9.17964 -22.602,-12.738237 -1.761,-0.613282 -6.128,1.828127 -1.675,4.808597 15.082,10.05074 25.953,26.57424 29.515,36.19924 2.496,6.7734 4.387,10.4609 5.438,25.9492"
         style="fill:#00674c;fill-opacity:1;fill-rule:nonzero;stroke:none"
         id="path100" /><path
         d="m 524.016,67.8125 c 3.066,14.4375 5.562,18.5 12.05,29.375 4.418,7.3945 10.461,10.0505 10.461,12.9725 0,2.942 -2.707,2.301 -4.812,1.68 -3.227,-0.965 -12.977,-9.414 -17.36,-15.2775 -12.871,-17.1641 -17.378,-33.9023 -16.738,-44.5586 1.301,-22.1914 16.738,-37.6836 32.227,-36.4141 17.754,1.4258 27.414,14.8438 27.609,29.2813 0.215,14.0117 -8.519,24.082 -18.82,26.3828 -5.438,1.1914 -12.156,2.6016 -23.547,-3.1016 0.516,-1.7109 4.547,-4.3125 4.547,-4.3125 0.711,0.4063 2.812,1.2266 6.023,1.5469 10.246,1.0156 15.614,-5.2578 16.949,-20.7109 0.625,-7.3242 -3.562,-21.3516 -12.761,-20.9258 -9.926,0.4453 -15.078,9.625 -16.754,23.6367 -0.82,6.9688 0.215,16.7344 0.586,18.6602 l 0.34,1.7656"
         style="fill:#00674c;fill-opacity:1;fill-rule:nonzero;stroke:none"
         id="path102" /><path
         d="m 592.152,52.6211 c -1.48,-0.3906 -5.027,-1.25 -3.136,2.9219 0.89,1.9804 2.461,7.2187 5.222,13.6015 l 4.813,11.7266 c 4.277,9.6797 6.254,15.668 7.129,15.8984 0.605,0.1602 0.765,-1.1562 0.925,-1.7617 0.075,-0.25 0.11,-0.375 0.161,-0.625 l 7.058,-29 c 2.106,-7.5234 0.946,-7.1836 -0.41,-7.5234 l -21.762,-5.2383 z m 32.012,-34.5234 c 2.301,0 4.918,6.0234 7.449,9.0703 0.84,1.2656 2.676,3.6914 3.637,4.3125 1.266,0.8203 0.43,1.6758 -0.195,3.9765 -1.121,4.0821 -3.352,11.3008 -3.778,13.1875 -0.41,1.8907 -0.339,3.1016 -0.41,3.3516 -0.234,0.8555 1.106,1.5156 2.332,1.8359 l 7.504,1.9258 c 3.192,0.8555 2.711,2.7813 3.141,5.6485 0.211,1.6406 0.836,5.6523 1.051,8.164 0.195,2.5156 -4.137,2.336 -4.813,1.25 -3.352,-5.2226 -5.703,-7.7187 -8.164,-8.3594 0,0 -1.266,-0.8398 -2.941,0 -1.676,0.836 -1.981,5.7032 -2.317,6.9141 -0.055,0.25 -0.09,0.375 -0.16,0.625 l -10.91,44.344 c -0.746,2.836 -2.727,8.164 -5.238,7.543 -6.774,-1.696 -10.215,-17.649 -20.5,-41.4417 -8.485,-19.625 -13.528,-29.8906 -12.352,-34.3125 0.625,-2.3359 5.633,-3.707 8.594,-2.9219 l 29.711,6.8985 c 1.961,0.5156 2.816,-0.5352 3.332,-2.5156 0,0 2.105,-11.4961 2.515,-15.4883 0.426,-3.9727 -2.07,-9.6602 -2.3,-11.3008 -0.215,-1.4609 0.836,-2.0859 1.675,-2.4961 0.676,-0.3359 2.102,-0.6406 3.137,-0.2109"
         style="fill:#00674c;fill-opacity:1;fill-rule:nonzero;stroke:none"
         id="path104" /><path
         d="m 368.074,974.219 c -9.09,-1.535 -10.586,-4.262 -12.937,-10.875 -2.891,-8.18 -2.446,-14.293 -5.723,-15.094 -1.195,-0.305 -6.898,-0.039 -6.594,4.082 0.106,1.246 0.871,7.77 2.012,18.34 0.481,4.473 0.856,9.926 6.883,9.16 3.348,-0.41 7.109,1.481 12.351,2.531 l 38.286,8.36 c 6.914,1.25 10.711,2.121 13.402,3.351 2.851,1.301 5.723,2.176 6.898,-2.726 0,0 -0.015,-11.606 -0.304,-14.207 -0.266,-2.512 -0.196,-6.504 -0.532,-8.805 -0.375,-2.656 -2.656,-2.262 -4.226,-2.406 -3.547,-0.34 -3.582,3.261 -5.113,8.394 -1.676,5.688 -3.422,9.485 -15.938,6.063 -0.32,-0.09 -0.551,-0.145 -0.871,-0.215 -4.813,-0.965 -5.543,-1.445 -3.977,-7.859 l 14.223,-61.532 c 1.731,-7.093 2.731,-12.976 5.742,-13.617 3.653,-0.801 6.934,1.535 7.86,-2.281 0.464,-1.926 -2.336,-4.988 -4.188,-5.438 -2.726,-0.675 -24.547,-5.629 -28.039,-6.484 -1.961,-0.484 -4.953,1.906 -5.363,3.547 -0.875,3.633 5.183,4.613 6.203,5.023 4.187,1.676 2.937,7.824 1.246,14.797 l -15.273,61.793 c -1.391,5.742 -1.25,6.899 -6.028,6.098"
         style="fill:#00674c;fill-opacity:1;fill-rule:nonzero;stroke:none"
         id="path106" /><path
         d="m 938.473,697.551 c 2.726,5.367 -2.942,10.14 2.55,12.797 2.778,1.34 3.473,-0.035 5.649,-4.723 0.48,-1.031 9.891,-24.793 10.25,-25.613 1.191,-2.762 1.551,-3.332 -1.981,-4.864 -3.351,-1.445 -3.582,2.407 -7.253,4.829 -1.586,1.035 -4.473,0.429 -7.145,-0.571 l -61.676,-24.367 c -8.215,-2.601 -9.906,-3.918 -9.695,-8.641 0.18,-4.332 3.051,-8.734 -1.641,-10.16 -2.992,-0.91 -4.383,-0.91 -5.988,3.903 -1.191,3.601 -10.566,26.914 -11.867,29.945 -0.805,1.852 1.922,4.027 3.242,4.527 4.332,1.657 4.973,-7.078 8.219,-8.218 3.082,-1.071 4.472,-0.446 9.746,1.855 l 63.668,26.379 c 0,0 3.066,1.23 3.922,2.922"
         style="fill:#00674c;fill-opacity:1;fill-rule:nonzero;stroke:none"
         id="path108" /><path
         d="m 286.43,871.027 c -1,1.246 -2.032,4.688 -2.086,4.813 -0.856,1.922 0.945,1.976 3.136,2.922 2.567,1.14 3.333,-2.246 11.711,-7.949 5.809,-3.942 18.36,-4.743 25.114,-2.922 10.871,2.922 21.761,13.382 17.359,25.113 -3.848,10.266 -10.246,11.496 -29.496,7.519 -22.496,-4.632 -40.391,-6.058 -48.34,14.653 -5.082,13.262 2.551,33.832 20.371,41.101 10.035,4.082 15.828,3.047 21.071,4.313 3.277,0.785 -1.426,2.211 2.621,3.887 1.816,0.75 4.773,-0.836 6.164,-2.422 1.465,-1.676 3.406,-3.692 4.386,-5.242 4.223,-6.629 7.86,-10.551 9.84,-15.063 0.836,-1.922 -2.64,-4.133 -4.191,-4.812 -3.723,-1.637 -3.652,3.656 -12.332,9.839 -7.738,5.368 -16.578,4.598 -24.703,1.051 -8.504,-3.723 -13.141,-17.664 -10.25,-24.703 5.222,-12.762 12.957,-13.082 26.789,-10.035 10.98,2.426 17.359,6.062 29.711,4.812 4.601,-0.461 15.773,-3.707 20.5,-14.242 10.265,-22.797 -9.625,-38.07 -21.551,-42.883 -6.504,-2.636 -16.734,-2.726 -23.012,-2.511 -1.976,0.07 -2.601,-2.141 -1.676,-3.977 0.536,-1.07 -4.402,-7.684 -8.785,-1.266 l -12.351,18.004"
         style="fill:#00674c;fill-opacity:1;fill-rule:nonzero;stroke:none"
         id="path110" /><path
         d="m 630.027,968.957 c -4.527,3.816 -10.961,2.176 -8.324,8.789 0.68,1.711 1.785,3.563 3.992,2.692 1.196,-0.465 54.453,-20.09 60.211,-22.352 4.438,-1.766 6.864,0.141 7.774,-3.816 0.425,-1.922 1.086,-2.903 0.586,-8.125 -0.5,-5.207 -0.786,-13.317 -1.871,-16.114 -0.786,-1.961 -5.153,-1.176 -7.079,-0.785 -2.296,0.465 0.805,8.379 -4.222,16.703 -5.328,8.805 -12.781,9.516 -25.953,14.008 -3.973,1.356 -5.098,1.621 -5.934,-0.516 l -8.254,-23.527 c -1.531,-3.922 -4.027,-7.418 0.02,-9.004 l 6.773,-2.246 c 5.613,-2.226 8.41,-3.973 12.367,-1.601 3.832,2.421 6.383,11.761 9.039,9.695 3.618,-2.797 2.637,-6.363 1.926,-8.199 -0.305,-0.786 -1.66,-4.743 -2.515,-6.879 -3.903,-9.805 -5.809,-15.528 -6.934,-17.774 -0.82,-1.636 -3.352,-3.972 -5.774,-2.851 -4.796,2.246 -2.621,3.066 -1.996,6.883 0.996,6.238 -2.39,8.019 -9.98,10.996 l -5.992,1.941 c -2.762,1.551 -3.153,0.57 -4.739,-2.852 l -6.808,-17.464 c -4.332,-10.536 -4.102,-11.071 0.961,-13.086 8.754,-3.477 24.652,-10.071 31.816,-7.59 5.168,1.711 12.031,7.59 15.133,10.851 1.316,1.391 1.266,2.907 2.227,1.481 2.336,-3.457 4.277,-5.363 3.351,-8.395 -1.031,-3.406 -8.519,-9.965 -13.512,-13.562 -8.214,-5.973 -8.375,-7.488 -12.226,-5.278 -16.059,9.215 -57.641,21.497 -60.137,22.477 -2.086,0.82 -3.262,6.164 -2.621,7.574 1.586,3.422 7.789,0.285 11.891,0.446 4.117,0.16 5.238,4.027 7.609,10.035 l 18.981,54.062 c 2.531,6.399 4.191,10.031 0.214,13.383"
         style="fill:#00674c;fill-opacity:1;fill-rule:nonzero;stroke:none"
         id="path112" /><path
         d="m 21.3008,405.637 c -3.4219,-4.848 3.2422,-9.461 -3.8164,-10.321 -1.8164,-0.211 -3.9727,-0.14 -4.2774,2.231 -0.1601,1.246 -9.30466,54.183 -10.07028,60.336 -0.58984,4.738 -4.42188,8.305 -1.37109,10.996 1.47656,1.316 2.03125,2.371 6.84375,4.422 4.81252,2.047 15.57812,6.683 18.55472,7.039 2.0859,0.265 2.5468,-4.192 3.1367,-6.063 0.6953,-2.246 -10.8555,-6.933 -14.4375,-11.726 -4.4024,-5.848 -0.961,-18.75 1.4062,-32.477 0.7149,-4.117 1.875,-5.043 4.1563,-4.758 l 24.5976,4.047 c 4.1875,0.516 10.2305,0.926 9.6954,5.239 l -1.2852,7.023 c -0.7461,6.008 -1.7461,9.805 -5.7188,12.137 -3.957,2.211 -14.2265,-1.871 -13.3867,2.301 0.8907,4.492 5.1485,6.453 7.1094,6.703 0.8398,0.105 5.0273,0.765 7.3281,1.05 10.461,1.266 16.5235,1.571 19.0352,1.676 4.8125,0.18 7.2734,-0.785 7.9492,-4.812 0.5898,-3.512 -4.7227,-2.692 -8.3594,-3.977 -5.9726,-2.121 -5.8281,-5.933 -4.8125,-14.027 l 1.461,-6.488 c -0.0352,-3.172 1.4609,-2.958 5.2226,-2.727 l 17.3086,1.906 c 11.3164,1.25 11.6914,1.731 11.0313,7.133 -1.1407,9.34 -3.2774,28.34 -8.875,33.453 -3.9766,3.707 -12.4219,6.918 -16.7891,8.074 -1.8359,0.485 -3.0859,1.766 -2.3008,3.297 1.9258,3.727 1.586,4.406 4.7422,4.367 2.957,-0.035 13.7774,-2.156 19.3555,-4.812 9.1606,-4.363 10.5706,-3.777 10.4806,-8.215 -0.391,-18.504 10.5,-64.863 10.836,-67.519 0.269,-2.227 -3.848,-5.829 -5.399,-5.918 -3.761,-0.247 -5.437,8.789 -7.539,12.3 -2.121,3.547 -6.0427,2.672 -12.4607,1.871 l -56.164,-8.949 c -6.8438,-0.855 -10.3203,-0.746 -13.1875,-4.812"
         style="fill:#00674c;fill-opacity:1;fill-rule:nonzero;stroke:none"
         id="path114" /><path
         d="m 109.188,218.352 c -0.786,-5.883 8.164,-13.813 2.726,-16.114 -1.691,-0.711 -2.191,-1.336 -3.562,0.625 -0.715,1.051 -34.9379,46.95 -38.4653,52.028 -2.7265,3.922 -4.8476,6.148 -4.0117,10.339 0.3945,1.926 0.625,3.348 2.6563,6.004 3.1718,4.157 11.8007,13.727 14.2578,15.438 1.7304,1.195 5.5468,-1.016 6.9336,-2.406 1.6601,-1.657 -8.5704,-10.836 -9.4102,-20.496 -0.4258,-4.817 4.707,-13.012 13.1719,-24.082 2.5508,-3.317 4.5976,-5.899 6.4883,-4.598 l 21.1403,14.453 c 3.457,2.406 7.184,6.598 4.703,10.18 l -4.382,5.613 c -3.457,4.957 -5.329,7.168 -9.93,7.379 -4.527,0.109 -11.5313,-6.863 -13.6173,-3.512 -2.4219,3.867 1.1055,7.453 2.7263,8.574 0.696,0.481 4.797,4.137 6.688,5.438 8.679,6.008 13.937,8.59 16.109,9.84 1.586,0.906 4.403,2.101 6.078,0 2.871,-3.602 0.465,-5.063 -2.172,-7.879 -4.296,-4.637 -1.925,-7.203 2.727,-13.887 l 3.902,-4.937 c 1.446,-2.817 2.586,-4.883 5.813,-2.922 l 15.363,10.746 c 9.43,6.363 9.25,9.609 6.168,14.082 -5.348,7.754 -12.551,21.746 -21.551,23.637 -5.328,1.121 -14.047,-1.161 -18.449,-2.161 -1.851,-0.425 -4.668,0.93 -5.203,2.571 -1.246,3.972 -0.926,4.847 1.891,6.289 2.636,1.34 14.972,5.187 21.136,5.437 10.145,0.391 12.442,1.211 14.012,-2.941 7.129,-18.82 31.336,-48.231 32.867,-50.426 1.281,-1.851 2.086,-3.758 1.035,-4.598 -2.941,-2.351 -4.867,-1.925 -8.363,0.196 -3.527,2.16 -8.09,-1.106 -13.402,-4.813 l -45.274,-32.758 c -5.648,-3.921 -10.14,-5.402 -10.8,-10.339"
         style="fill:#00674c;fill-opacity:1;fill-rule:nonzero;stroke:none"
         id="path116" /><path
         d="m 65.0352,306.031 c -9.5352,-10.23 -6.2735,-12.761 -5.4375,-18 0.6406,-3.976 0.4648,-5.457 -2.2969,-6.488 -1.7305,-0.625 -3.8711,4.133 -4.4766,5.809 -1.0859,2.961 -14.5078,31.281 -14.9375,32.476 -1.0508,3.012 -0.5156,4.707 0.7852,5.238 3.5469,1.5 4.3867,-1.711 6.2734,-3.757 2.5156,-2.731 5.5625,-4.278 7.293,-2.977 2.1211,1.621 8.75,8.109 11.0508,10.016 l 33.9179,32.136 c 1.4961,1.231 3.582,3.032 3.402,3.512 -0.211,0.586 -2.691,1.481 -4.1871,1.461 0,0 -53.7227,3.012 -56.5196,2.727 -4.2421,-0.411 -6.8632,0.214 -8.2539,-4.329 -1.0156,-3.316 1.625,-8.683 -3.2968,-9.859 -1.9258,-0.445 -2.7813,0.109 -3.4219,1.891 -1.1758,3.207 -7.3789,24.597 -7.9297,26.148 -0.5703,1.531 0.8711,3.653 2.4219,4.348 3.3711,1.531 3.9922,-2.461 6.0625,-4.387 0.9258,-0.871 4.8828,-3.687 10.6758,-3.777 66.4848,-0.926 91.2928,-6.094 91.2928,-6.094 1.356,-0.035 2.852,-1.07 3.281,-2.266 0.356,-0.961 1.692,-2.746 0,-3.972 -30.23,-22.266 -65.6988,-59.856 -65.6988,-59.856"
         style="fill:#00674c;fill-opacity:1;fill-rule:nonzero;stroke:none"
         id="path118" /><path
         d="m 74.6484,708.266 c -3.9765,2.32 -11.6953,6.882 -15.7031,6.293 -7.2383,-0.981 -6.3125,-12.887 -12.5312,-9.5 -2.1407,1.175 -3.3868,2.031 -1.2852,6.632 0.8555,1.887 7.043,16.664 8.6094,19.336 1.625,2.782 5.2578,1.231 10.875,1.676 5.6328,0.445 58.2307,3.281 60.2617,3.567 4.402,0.605 10.5,0.96 10.891,1.675 0.375,0.66 -2.262,3.278 -7.539,6.684 l -24.473,15.488 c -7.5938,4.438 -14.4376,9.84 -17.4142,8.735 -5.8125,-2.157 -6.3632,-4.813 -8.75,-4.973 -3.1406,-0.195 -4.2265,1.441 -3.3515,2.941 0.9805,1.657 10.0156,16.684 15.0781,24.278 1.2461,1.871 1.5508,3.187 4.3828,0.41 2.4805,-2.406 -0.1406,-1.606 0.625,-9.414 0.4297,-4.188 4.6172,-7.324 10.2658,-11.086 5.652,-3.778 37.254,-25.399 53.988,-34.328 3.746,-1.996 7.008,-2.852 7.953,-2.922 5.149,-0.41 4.918,-5.563 3.137,-7.754 -1.891,-2.301 -3.297,-2.781 -8.164,-3.141 l -71.422,-5.258 c -2.0664,-0.125 -2.9062,-0.3 -3.082,-0.585 -0.4648,-0.801 -1.1602,-1.731 5.2383,-4.403 0,0 38.9457,-23.672 43.5277,-23.437 5.523,0.285 4.687,6.379 8.789,3.972 2.351,-1.371 3.402,-3.761 2.297,-5.648 -0.926,-1.59 -7.805,-15.043 -8.786,-16.738 -0.75,-1.286 -3.656,-1.336 -5.527,-0.25 -2.851,1.675 -0.125,4.222 -1.176,5.898 -2.761,4.441 -12.832,8.149 -26.879,16.363 0,0 -25.8629,13.172 -29.8356,15.489"
         style="fill:#00674c;fill-opacity:1;fill-rule:nonzero;stroke:none"
         id="path120" /><path
         d="m 168.406,153.691 c 0.43,-7.023 7.735,-9.839 3.352,-13.187 -3.117,-2.356 -5.043,0.961 -6.774,2.707 -1.925,1.941 -20.371,20.035 -21.691,21.355 -1.211,1.231 -5.402,5.063 -4.188,6.289 3.547,3.583 7.465,-1.246 12.352,-1.46 5.188,-0.34 7.074,3.832 11.781,8.503 l 45.164,46.09 c 2.051,1.91 2.766,3.121 0.18,5.668 -3.582,3.532 -5.883,6.453 -9.25,9.789 -7.168,7.059 -14.047,6.434 -18.894,5.149 -11.586,-3.082 -13.047,-6.344 -15.704,-1.766 -1.976,3.406 -3.867,5.027 3.047,8.164 4.653,2.121 10.465,4.602 16.524,6.918 5.867,2.207 10.925,3.012 13.136,-0.805 5.473,-9.41 40.747,-41.277 42.743,-43.152 3.136,-2.922 1.336,-5.578 0.214,-6.699 -2.351,-2.316 -8.164,3.777 -12.351,5.027 -2.817,0.856 -5.723,1.532 -10.43,-3.136 L 176.18,166.828 c -5.008,-4.957 -7.914,-10.765 -7.774,-13.137"
         style="fill:#00674c;fill-opacity:1;fill-rule:nonzero;stroke:none"
         id="path122" /><path
         d="m 457.891,936.563 c -2.301,-0.141 -2.907,1.085 -1.961,4.351 2.3,7.949 6.933,21.547 9.625,29.711 2.461,7.504 3.047,12.727 8.574,-1.035 3.562,-8.84 10.035,-23.668 12.137,-28.25 0.945,-2.051 1.105,-3.457 -1.461,-3.692 -3.442,-0.3 -26.914,-1.085 -26.914,-1.085 m -17.469,-13.938 c -1.852,-5.277 -4.383,-17.074 -7.094,-20.836 -1.871,-2.601 -6.933,-3.262 -6.699,-6.273 0.301,-3.727 4.883,-3.102 6.699,-2.942 5.383,0.496 11.856,1.606 16.328,2.102 2.817,0.304 5.473,1.871 5.403,3.902 -0.055,2.301 -0.34,3.602 -3.532,3.426 -7.324,-0.43 -5.203,5.488 -4.187,9.625 0.355,1.387 1.926,7.305 2.512,9.195 0,0 1.05,6.489 6.293,6.489 0,0 30.156,1.246 30.55,1.265 5.168,0.16 5.469,-1.98 7.875,-7.808 0,0 2.821,-7.54 3.477,-9.141 3.281,-7.824 -0.711,-7.613 -3.563,-8.129 -1.941,-0.355 -2.746,-0.605 -2.156,-3.352 0.871,-4.171 1.086,-3.457 4.348,-3.582 3.262,-0.144 18.875,-0.464 22.246,-0.64 3.973,-0.215 10.246,-0.215 10.031,3.758 -0.211,4.191 -7.734,1.675 -10.031,8.164 -1.711,4.797 -6.613,15.203 -8.594,19.89 0,0 -30.281,68.34 -31.387,70.907 -0.765,1.815 -2.691,7.575 -6.953,6.715 -2.441,-0.48 -9.57,-10.247 -12.082,-12.133 0,0 -17.648,-65.325 -19.484,-70.602"
         style="fill:#00674c;fill-opacity:1;fill-rule:nonzero;stroke:none"
         id="path124" /><path
         d="m 554.484,985.07 c -9.015,1.926 -11.011,0.641 -16.113,-4.187 -7.734,-7.324 -5.433,-14.438 -10.496,-12.352 -1.141,0.461 -5.133,3.207 -3.316,6.914 0.554,1.141 1.32,6.703 6.277,16.114 2.102,3.976 2.422,8.571 7.75,5.652 2.961,-1.625 7.148,-1.266 12.406,-2.211 l 41.582,-7.629 c 6.883,-1.371 10.75,-1.98 13.692,-1.82 3.136,0.16 6.132,-0.086 5.418,-5.078 0,0 -4.297,-10.785 -5.528,-13.102 -1.176,-2.226 -2.937,-5.793 -3.742,-7.984 -1.476,-4.028 -5.398,-2.371 -6.914,-1.942 -3.422,0.996 -0.25,6.254 0.23,11.586 0.536,5.899 0.536,9.446 -12.371,10.891 -0.336,0.035 -0.55,0.07 -0.89,0.121 -4.828,0.875 -5.508,1.82 -6.434,-4.738 l -9.465,-62.422 c -0.996,-7.254 -1.941,-13.688 -0.996,-14.863 2.512,-3.137 7.11,-1.461 5.864,-5.864 -0.571,-2.015 -3.172,-3.351 -5.063,-3.086 -2.781,0.375 -22.137,4.477 -25.703,4.973 -1.996,0.285 -3.012,2.711 -3.137,4.402 -0.215,2.926 4.352,2.301 5.438,2.301 4.507,0 5.597,6.988 6.578,14.082 l 8.605,63.078 c 0.821,5.848 1.071,6.149 -3.672,7.164"
         style="fill:#00674c;fill-opacity:1;fill-rule:nonzero;stroke:none"
         id="path126" /><path
         d="m 351.617,612.328 c 2.016,-6.703 -0.676,-12.387 -1.336,-18.75 -1.676,2.352 -1.336,6.699 -3.351,9.375 0,4.348 2.675,7.699 3.691,11.711 1.336,0 0.66,-1.66 0.996,-2.336"
         style="fill:#00674c;fill-opacity:1;fill-rule:nonzero;stroke:none"
         id="path128" /><path
         d="m 361.328,593.242 c 0.996,-3.347 0.336,-7.359 2.672,-10.051 5.027,-14.046 2.352,-29.464 -5.348,-41.511 0,-1.996 -1.675,-2.336 -2.011,-3.672 -1.336,-2.692 -1.676,-6.028 -1.676,-8.719 -2.016,0.34 -2.016,3.352 -2.336,5.367 3.332,11.711 -3.031,23.102 -0.676,35.149 -0.68,8.039 2.672,15.398 1.676,24.117 0.336,3.332 0.336,6.344 1.676,9.035 3.011,-2.691 3.347,-6.699 6.023,-9.715"
         style="fill:#00674c;fill-opacity:1;fill-rule:nonzero;stroke:none"
         id="path130" /><path
         d="m 344.254,597.262 c -0.68,-7.699 6.699,-13.387 4.008,-21.426 -1.996,3.352 -5.008,6.363 -5.688,10.375 -1.672,3.687 -2.011,9.035 1.68,11.051"
         style="fill:#00674c;fill-opacity:1;fill-rule:nonzero;stroke:none"
         id="path132" /><path
         d="m 340.57,580.52 c 0.996,-4.008 3.352,-8.04 5.028,-11.711 0.996,-2.352 1.672,-4.688 1.996,-7.039 -0.324,-2.336 1.015,-4.688 0.676,-6.704 l -1.336,0 c -9.039,6.364 -10.055,17.754 -9.375,27.469 l 1.336,1.996 c 1.335,-0.32 0.675,-2.672 1.675,-4.011"
         style="fill:#00674c;fill-opacity:1;fill-rule:nonzero;stroke:none"
         id="path134" /><path
         d="m 401.504,563.109 c -2.016,-2.671 -5.363,-5.023 -8.039,-7.359 -0.996,-0.68 -1.676,0.32 -2.016,1.336 0.68,1.676 1.68,3.352 3.352,4.348 2.015,0 4.687,0.339 6.703,1.675"
         style="fill:#00674c;fill-opacity:1;fill-rule:nonzero;stroke:none"
         id="path136" /><path
         d="m 348.27,546.035 c 3.011,-4.012 2.675,-9.715 1.675,-14.402 0,4.347 -6.023,7.379 -6.363,12.387 -3.012,4.687 -3.687,10.39 -6.363,15.402 l 0.679,0.676 -0.679,0 0,2.351 c 3.011,-5.363 6.027,-12.066 11.051,-16.414"
         style="fill:#00674c;fill-opacity:1;fill-rule:nonzero;stroke:none"
         id="path138" /><path
         d="m 389.117,559.762 c -0.996,-1.676 -0.676,-3.688 -1.676,-5.364 -2.011,-2.675 -4.007,-5.007 -7.359,-5.347 -1.016,3.351 0.996,6.023 2.672,8.039 1.34,1.676 4.012,4.012 6.363,2.672"
         style="fill:#00674c;fill-opacity:1;fill-rule:nonzero;stroke:none"
         id="path140" /><path
         d="m 310.438,552.063 c -2.012,-0.34 -5.028,0 -6.024,2.011 -0.34,1.996 -1.34,4.012 -2.016,6.028 2.676,-2.356 6.028,-4.692 8.04,-8.039"
         style="fill:#00674c;fill-opacity:1;fill-rule:nonzero;stroke:none"
         id="path142" /><path
         d="m 322.488,557.082 c 4.012,0.68 6.364,-3.012 10.055,-3.687 7.699,-5.348 8.695,-15.063 13.383,-22.422 1,-1.016 2.015,-1.336 3.691,-1.016 -1.676,0 -3.351,-1.34 -5.027,-0.32 -7.36,5.343 -13.067,11.707 -21.102,16.058 -4.687,4.688 -10.375,9.035 -15.062,13.063 l 0.34,1 c 4.687,-1 10.035,1.015 13.722,-2.676"
         style="fill:#00674c;fill-opacity:1;fill-rule:nonzero;stroke:none"
         id="path144" /><path
         d="m 375.055,552.73 c 0,-3.351 0.675,-6.363 -1.336,-9.035 -2.016,-1.015 -3.692,-4.687 -6.364,-4.687 -0.675,2.336 0.676,5.683 -1.335,7.699 l 1.335,0 c 1.676,4.012 3.352,10.035 9.036,10.371 0,-1.336 -1.336,-2.672 -1.336,-4.348"
         style="fill:#00674c;fill-opacity:1;fill-rule:nonzero;stroke:none"
         id="path146" /><path
         d="m 398.156,552.063 c 0,-4.008 -2.336,-7.7 -5.363,-10.375 -3.012,-10.711 -15.402,-11.727 -24.098,-14.399 -3.015,-0.68 -5.687,-0.34 -8.379,-0.34 8.379,6.703 15.079,15.399 25.114,19.75 5.027,3.012 9.715,6.364 14.062,10.051 1.676,-0.996 -0.656,-3.352 -1.336,-4.687"
         style="fill:#00674c;fill-opacity:1;fill-rule:nonzero;stroke:none"
         id="path148" /><path
         d="m 320.48,543.691 c -4.347,-1.675 -10.05,-0.675 -12.726,2.336 l 0,1.672 c 4.687,-0.316 10.055,1.02 12.726,-4.008"
         style="fill:#00674c;fill-opacity:1;fill-rule:nonzero;stroke:none"
         id="path150" /><path
         d="m 363.672,543.02 c 0,-3.688 1.34,-8.375 -3.012,-11.051 l -1.676,-0.336 c 0,4.027 2.676,7.699 4.012,11.726 l 0.676,-0.339"
         style="fill:#00674c;fill-opacity:1;fill-rule:nonzero;stroke:none"
         id="path152" /><path
         d="m 331.195,535.988 c -6.027,0.34 -14.062,-7.359 -18.074,1 l 0,1.356 c 5.684,-1.02 13.047,4.687 18.074,-2.356"
         style="fill:#00674c;fill-opacity:1;fill-rule:nonzero;stroke:none"
         id="path154" /><path
         d="m 348.605,524.941 c -4.347,-4.687 -10.375,-8.039 -15.738,-11.39 -7.699,-8.36 -18.074,-13.047 -25.773,-21.086 0,0.34 -0.34,0.34 -0.34,0.66 0.68,6.363 6.027,10.73 7.023,16.758 3.692,3.012 4.688,8.035 9.375,10.031 6.028,2.676 13.743,4.688 20.766,2.016 0.68,0.66 2.336,0.34 2.336,2.015 l -0.32,1.336 c -7.043,0.66 -13.727,0.996 -19.766,3.352 3.687,2.672 10.051,3.672 14.738,0.996 2.336,-2.016 4.348,-4.688 7.699,-4.688"
         style="fill:#00674c;fill-opacity:1;fill-rule:nonzero;stroke:none"
         id="path156" /><path
         d="m 349.938,530.289 0.33984,0 0,0.67578 -0.33984,0 0,-0.67578 z"
         style="fill:#00674c;fill-opacity:1;fill-rule:nonzero;stroke:none"
         id="path158" /><path
         d="m 359.988,526.617 c -0.34,-1 -2.672,-1.676 -2.015,-3.351 l 1.34,-1 c 6.363,1.336 14.738,2.336 19.089,-2.692 -7.703,-1.996 -16.398,-0.32 -22.425,4.028 -0.336,0.339 -0.336,1 -0.336,1.339 1.336,0.676 3.347,0.676 4.347,1.676"
         style="fill:#00674c;fill-opacity:1;fill-rule:nonzero;stroke:none"
         id="path160" /><path
         d="m 353.965,519.586 c 0,-6.363 1.676,-13.066 0.996,-19.75 0.68,-1.336 0.34,-2.352 0,-3.352 -0.32,-10.371 1.016,-18.074 -0.32,-27.785 -0.336,-2.355 -3.032,-1.676 -4.688,-1.34 -3.687,0 -1.676,4.692 -1.676,6.364 l 1,0.66 -0.679,1.015 c 3.351,12.051 0,23.422 2.015,35.489 -0.66,2.336 -0.34,5.347 -1.675,7.023 -3.352,-4.012 -3.012,-11.39 -8.04,-13.387 0.676,2.676 0.676,6.364 0.676,9.7 2.336,3.347 6.028,4.367 9.039,7.379 1.676,0.656 2.352,-1.676 3.352,-2.016"
         style="fill:#00674c;fill-opacity:1;fill-rule:nonzero;stroke:none"
         id="path162" /><path
         d="m 388.781,491.457 c 0.34,-0.676 -0.676,-0.996 -0.996,-0.996 -4.687,0 -9.375,1.676 -14.062,2.336 -7.379,2.691 -12.387,9.375 -14.063,16.734 -0.68,3.016 -1.676,5.707 -3.015,8.379 0,0.996 1.675,0.68 2.335,0 7.364,-2.672 11.391,-9.039 17.079,-14.402 3.347,-4.688 8.039,-9.035 12.722,-12.051"
         style="fill:#00674c;fill-opacity:1;fill-rule:nonzero;stroke:none"
         id="path164" /><path
         d="m 387.109,510.879 c -1.675,-0.996 -4.011,0.676 -6.027,0 -3.012,0 -7.699,-0.34 -9.375,2.672 4.688,2.015 13.047,4.031 15.402,-2.672"
         style="fill:#00674c;fill-opacity:1;fill-rule:nonzero;stroke:none"
         id="path166" /><path
         d="m 331.527,497.488 c 1,4.688 0.68,9.715 4.012,13.067 l 1.016,0.316 c -1.016,-5.008 1.336,-12.047 -5.028,-13.383"
         style="fill:#00674c;fill-opacity:1;fill-rule:nonzero;stroke:none"
         id="path168" /><path
         d="m 389.785,504.516 c -4.008,1 -9.035,-3.012 -11.051,2.355 3.692,-0.34 8.039,-0.34 11.051,-2.355"
         style="fill:#00674c;fill-opacity:1;fill-rule:nonzero;stroke:none"
         id="path170" /><path
         d="m 328.516,505.859 c 0,-3.691 0,-8.379 -3.012,-10.375 -0.996,-0.339 -1.676,-0.675 -2.672,-0.675 0.656,4.347 1.676,9.035 5.684,11.05"
         style="fill:#00674c;fill-opacity:1;fill-rule:nonzero;stroke:none"
         id="path172" /><path
         d="m 392.801,496.484 c -0.34,-1 0.996,-2.015 0.336,-2.675 -3.012,0 -5.364,3.351 -7.039,5.687 1.355,-0.34 2.691,0 4.367,-0.34 l 2.336,-2.672"
         style="fill:#00674c;fill-opacity:1;fill-rule:nonzero;stroke:none"
         id="path174" /><path
         d="m 319.141,497.152 c 0.339,-1.336 -2.012,-1.336 -0.996,-2.672 -1.34,-1.335 -3.352,-1.015 -4.352,-0.675 1,1.336 2.676,3.347 4.672,3.687 l 0.676,-0.34"
         style="fill:#00674c;fill-opacity:1;fill-rule:nonzero;stroke:none"
         id="path176" /><path
         d="m 444.695,612.664 c -1.675,-15.398 -3.011,-30.461 -0.34,-45.879 0.34,0 0.68,-1 1.016,-0.32 2.676,4.348 3.676,10.035 8.024,13.047 l 0.675,-0.321 c -0.675,-2.691 -0.34,-6.363 -1.675,-9.054 -2.672,-2.672 -5.028,-6.024 -8.7,-7.024 -2.351,0.34 -4.027,2.336 -6.359,3.012 -10.055,1.676 -17.414,11.051 -24.777,17.754 -2.352,2.336 -5.364,4.012 -8.379,5.348 l 0,0.675 c 4.031,-1.015 9.039,1 13.066,-1.015 5.348,1.015 11.051,-1.676 13.727,-6.364 3.672,-4.347 2.672,-12.046 8.375,-14.382 0.32,8.019 -1.356,15.738 -1.016,23.437 0.34,7.363 -0.34,14.723 1.336,21.766 1.34,1.656 4.027,0.656 5.027,-0.68"
         style="fill:#00674c;fill-opacity:1;fill-rule:nonzero;stroke:none"
         id="path178" /><path
         d="m 485.207,583.535 c -1.676,-1 0,-3.012 -1,-5.027 -4.027,-4.348 -3.012,-11.711 -9.715,-13.723 -7.359,-2.336 -15.058,-3.012 -23.097,-4.012 -0.34,-1.015 -1.676,-1.355 -1.336,-2.691 2.671,-2.676 6.023,-1.996 9.695,-2.336 2.691,-0.676 5.027,-2.012 7.719,-2.351 -2.016,-0.661 -3.692,0.675 -5.368,-0.661 -5.683,-1.015 -10.05,2.336 -14.738,4.688 -0.32,1 -2,1.676 -1,2.676 7.039,7.039 16.414,9.375 24.117,15.398 5.008,4.688 10.711,8.375 15.719,13.727 -0.32,-1.676 -0.996,-3.672 -0.996,-5.688"
         style="fill:#00674c;fill-opacity:1;fill-rule:nonzero;stroke:none"
         id="path180" /><path
         d="m 480.52,588.223 c -0.997,-1.676 -3.012,-3.352 -4.688,-3.692 0,1.02 -0.34,3.016 1.336,3.352 1.34,0 2.355,0.68 3.352,0.34"
         style="fill:#00674c;fill-opacity:1;fill-rule:nonzero;stroke:none"
         id="path182" /><path
         d="m 473.488,587.219 c -0.675,-3.016 -1.675,-6.028 -4.347,-7.703 -1.336,1 -0.68,3.691 -0.68,5.027 1.34,1 1.016,2.676 2.691,3.012 0.661,0 1.996,0.66 2.336,-0.336"
         style="fill:#00674c;fill-opacity:1;fill-rule:nonzero;stroke:none"
         id="path184" /><path
         d="m 465.789,586.547 c -2.676,-3.012 -1,-8.039 -4.351,-11.051 -1.016,0 -1.336,-1.676 -2.352,-1.336 -1.336,3.352 -0.66,7.36 1.016,10.051 1.336,1.66 3.671,1.996 5.687,2.336"
         style="fill:#00674c;fill-opacity:1;fill-rule:nonzero;stroke:none"
         id="path186" /><path
         d="m 407.195,583.199 c -2.351,-0.34 -5.363,0.676 -6.359,3.012 l 0,0.34 c 2.012,-1.34 5.363,-1 6.359,-3.352"
         style="fill:#00674c;fill-opacity:1;fill-rule:nonzero;stroke:none"
         id="path188" /><path
         d="m 417.91,574.492 c -4.012,0 -9.375,-0.676 -12.051,3.012 -0.336,0.68 0,1.34 0.661,1.676 4.367,0 9.714,-0.336 11.39,-4.688"
         style="fill:#00674c;fill-opacity:1;fill-rule:nonzero;stroke:none"
         id="path190" /><path
         d="m 425.945,568.465 0,-0.676 c -5.363,0.34 -14.062,-4.687 -16.414,2.691 3.352,-0.339 7.379,-1.015 10.731,0.34 1.996,0 4.008,-1.355 5.683,-2.355"
         style="fill:#00674c;fill-opacity:1;fill-rule:nonzero;stroke:none"
         id="path192" /><path
         d="m 440.008,559.094 c -0.68,-4.008 -6.024,-3.352 -8.699,-5.364 -12.067,-6.027 -17.075,-21.085 -29.141,-27.449 l -1.336,0 c -1,4.028 3.688,7.36 1.336,11.727 0,3.672 3.352,6.023 4.367,9.695 2.672,3.352 6.684,4.692 10.371,6.363 6.364,1.34 11.711,3.012 18.074,3.352 0.68,0.34 1.336,0.68 1.676,1.34 -3.687,4.347 -10.035,0.336 -14.722,2.672 -1.016,0.675 -2.692,0.34 -3.688,1.675 1.336,1.016 4.008,0 5.684,0 5.703,2.352 12.386,0.676 16.078,-4.011"
         style="fill:#00674c;fill-opacity:1;fill-rule:nonzero;stroke:none"
         id="path194" /><path
         d="m 442.02,550.723 c 0.675,-9.375 0,-18.75 -1.676,-27.789 1.336,-16.075 0.676,-31.137 0.676,-46.539 l -0.676,-0.676 c -3.352,4.027 -6.703,8.379 -7.364,13.722 -4.027,3.352 -2.351,9.055 -5.363,13.067 -3.012,16.078 4.028,30.801 11.051,44.203 0,1.66 2.352,4.012 -0.34,5.348 -3.672,-2.336 -3.672,-7.36 -6.363,-10.036 -0.996,1 -0.996,3.672 -1.336,6.028 1.676,3.672 10.051,10.035 11.391,2.672"
         style="fill:#00674c;fill-opacity:1;fill-rule:nonzero;stroke:none"
         id="path196" /><path
         d="m 456.414,548.715 c 5.363,-4.348 9.035,-12.727 16.414,-14.402 3.672,-4.008 9.36,-5.344 11.711,-10.372 -0.676,-0.679 -2.016,0.661 -3.012,0.661 -8.039,-0.325 -15.738,1.351 -22.101,5.703 -5.688,6.363 -7.363,14.722 -12.387,21.086 -1.676,-0.661 -0.68,-2.336 -0.68,-3.672 2.016,-8.719 8.379,-15.403 8.379,-24.778 -9.039,7.7 -10.375,19.075 -10.375,30.461 3.672,1.336 7.364,-2.011 10.375,-4.007 l 1.676,-0.68"
         style="fill:#00674c;fill-opacity:1;fill-rule:nonzero;stroke:none"
         id="path198" /><path
         d="m 477.172,546.703 c -4.012,-0.996 -8.695,-4.027 -12.727,-1.336 -0.66,1.336 -2.672,1.676 -1.996,3.352 4.352,0.34 9.696,1.336 13.727,-0.676 l 0.996,-1.34"
         style="fill:#00674c;fill-opacity:1;fill-rule:nonzero;stroke:none"
         id="path200" /><path
         d="m 426.949,545.031 c 0.34,-2.672 0.34,-5.687 1.336,-8.039 0.68,-4.012 -2.332,-7.023 -5.347,-8.359 l -0.676,0 c 1,5.008 -1.676,12.711 3.691,16.398 l 0.996,0"
         style="fill:#00674c;fill-opacity:1;fill-rule:nonzero;stroke:none"
         id="path202" /><path
         d="m 483.531,538.336 0,-1.34 c -4.687,-1.016 -9.715,-1.336 -12.726,3.016 4.031,0.676 10.39,3.687 12.726,-1.676"
         style="fill:#00674c;fill-opacity:1;fill-rule:nonzero;stroke:none"
         id="path204" /><path
         d="m 418.918,528.625 c 0,-4.687 -5.367,-4.687 -8.039,-6.023 0.676,2.671 2.351,5.347 4.027,8.039 0.321,1.996 0.996,4.011 3.012,4.687 1.676,-1.336 1.676,-4.687 1,-6.703"
         style="fill:#00674c;fill-opacity:1;fill-rule:nonzero;stroke:none"
         id="path206" /><path
         d="m 487.219,528.289 c 0.336,-0.676 -0.34,-0.336 -0.68,-0.676 -0.996,1.676 -3.012,3.032 -3.332,4.688 3.012,0.679 3.012,-2.336 4.012,-4.012"
         style="fill:#00674c;fill-opacity:1;fill-rule:nonzero;stroke:none"
         id="path208" /><path
         d="m 447.711,526.617 c 0.996,-4.012 6.363,-6.703 6.699,-10.715 0.66,-3.687 3.352,-8.039 1,-11.726 -1.676,1.676 -1.676,4.367 -3.012,6.363 -3.351,6.024 -9.375,11.051 -7.363,18.75 1,-0.32 1.996,-1.336 2.676,-2.672"
         style="fill:#00674c;fill-opacity:1;fill-rule:nonzero;stroke:none"
         id="path210" /><path
         d="m 409.539,526.953 c -0.676,-1.676 -1.676,-4.012 -3.687,-4.351 -1.34,-0.336 -3.336,-0.336 -4.012,-1.016 1.676,2.355 5.027,4.687 7.699,5.367"
         style="fill:#00674c;fill-opacity:1;fill-rule:nonzero;stroke:none"
         id="path212" /><path
         d="m 452.398,500.836 c 0.676,-2.336 2.012,-5.027 0.997,-8.039 0,-1 -0.321,-1.34 -0.997,-1.676 -6.027,5.027 -9.039,14.063 -7.043,22.102 2.356,-3.692 4.032,-8.379 7.043,-12.387"
         style="fill:#00674c;fill-opacity:1;fill-rule:nonzero;stroke:none"
         id="path214" /><path
         d="m 449.051,486.438 c 1.336,-5.348 -2.356,-9.375 -4.028,-14.067 l -0.66,0 c -0.34,7.043 0,13.067 0.66,19.77 1.672,-1.356 2.692,-3.692 4.028,-5.703"
         style="fill:#00674c;fill-opacity:1;fill-rule:nonzero;stroke:none"
         id="path216" /><path
         d="m 265.238,611.656 c 1.676,-2.011 -0.679,-4.008 -1,-6.023 0,-6.363 -1.675,-12.727 -1.351,-19.43 -1,-1.676 -0.324,-3.332 -0.66,-5.008 0.996,-2.011 -1,-4.027 0.336,-6.023 -0.676,-3.031 0.66,-6.043 0.324,-8.715 0.676,-1.34 0.336,-4.012 2.687,-4.012 3.016,3.012 2.676,8.039 6.367,11.051 l 0.997,-0.34 c 0.339,-2.672 -0.34,-5.363 -0.997,-8.039 -3.015,-2.012 -5.367,-5.683 -9.714,-5.023 -1,0.336 -2.676,0.676 -3.352,1.676 2.016,5.703 -0.68,12.046 -0.34,18.41 -0.66,10.054 0,21.761 1.676,31.476 1.336,1 3.691,1.336 5.027,0"
         style="fill:#00674c;fill-opacity:1;fill-rule:nonzero;stroke:none"
         id="path218" /><path
         d="m 303.742,587.219 c -2.355,-1.676 -4.351,-3.692 -7.363,-3.692 -0.34,1.336 0.32,2.692 1.676,2.692 1.996,0.32 4.011,0.32 5.687,1"
         style="fill:#00674c;fill-opacity:1;fill-rule:nonzero;stroke:none"
         id="path220" /><path
         d="m 243.477,582.195 c 5.363,-5.363 8.695,-12.726 12.722,-19.09 -1.015,-0.335 -3.011,0.68 -4.347,1.676 -6.043,3.012 -10.731,6.703 -16.754,10.375 -3.332,3.032 -7.7,5.364 -10.035,10.051 3.011,1.34 5.347,-1.336 8.039,0.34 4.347,1.336 6.363,-3.352 10.375,-3.352"
         style="fill:#00674c;fill-opacity:1;fill-rule:nonzero;stroke:none"
         id="path222" /><path
         d="m 292.691,584.539 c -0.339,-4.012 -3.011,-7.023 -6.363,-8.699 l -0.996,0.32 c 0.996,3.352 1.336,7.699 5.023,9.375 1,-0.32 3.012,0.68 2.336,-0.996"
         style="fill:#00674c;fill-opacity:1;fill-rule:nonzero;stroke:none"
         id="path224" /><path
         d="m 224.727,579.184 0,-0.68 c -2.356,-0.32 -4.352,1.016 -5.688,2.691 l -1.336,4.012 c 2.672,-0.996 5.008,-3.691 7.024,-6.023"
         style="fill:#00674c;fill-opacity:1;fill-rule:nonzero;stroke:none"
         id="path226" /><path
         d="m 282.313,582.531 c -1.676,-4.011 0,-11.051 -5.364,-12.726 0.336,2.672 1.356,5.703 1.016,8.715 0.34,2.335 2.336,3.332 4.348,4.011"
         style="fill:#00674c;fill-opacity:1;fill-rule:nonzero;stroke:none"
         id="path228" /><path
         d="m 302.734,581.523 c -1.675,-5.683 -4.687,-10.71 -6.699,-16.078 -7.363,-6.343 -16.738,-7.359 -26.113,-7.359 -1.676,-0.66 -2.016,-2.676 -0.996,-3.691 2.332,-1.657 4.683,-0.997 8.035,-0.997 4.012,-1.335 9.699,-0.339 11.375,-5.027 -2.676,-0.32 -5.012,-1 -7.363,-1.676 -5.028,0.676 -8.379,5.368 -12.047,7.379 -1.02,0.321 -2.356,0.321 -2.676,1.676 l 0.66,1.996 c 9.035,6.703 19.09,12.391 28.125,19.77 2.676,0.656 4.688,3.672 7.363,4.347 l 0.336,-0.34"
         style="fill:#00674c;fill-opacity:1;fill-rule:nonzero;stroke:none"
         id="path230" /><path
         d="m 234.098,571.48 c -2.672,-2.015 -6.364,-1.335 -9.375,0 -0.676,1 -1.676,1.676 -1.336,3.012 3.687,0 8.699,0.34 10.711,-3.012"
         style="fill:#00674c;fill-opacity:1;fill-rule:nonzero;stroke:none"
         id="path232" /><path
         d="m 242.805,564.785 c -4.012,-1.34 -9.035,-3.351 -13.387,-0.68 -0.676,0.68 -1.676,1.676 -1.676,2.692 5.012,-0.676 11.051,2.676 15.063,-2.012"
         style="fill:#00674c;fill-opacity:1;fill-rule:nonzero;stroke:none"
         id="path234" /><path
         d="m 257.203,557.754 c 0.996,-0.676 2.672,-2.016 0.996,-3.012 -14.062,-5.687 -24.433,-18.75 -35.148,-28.804 -0.996,-0.661 -2.012,-0.997 -3.352,-1.336 0,4.027 -0.66,8.378 1.34,12.066 0,4.012 5.703,7.023 7.039,11.031 8.039,5.028 18.75,4.031 28.125,6.703 0.66,0.68 0,2.016 -0.336,2.676 -3.691,2.692 -8.379,-1.34 -12.39,1.016 -0.676,0.336 -2.352,0.996 -1.336,2.011 4.687,4.672 11.05,0 15.062,-2.351"
         style="fill:#00674c;fill-opacity:1;fill-rule:nonzero;stroke:none"
         id="path236" /><path
         d="m 269.926,549.051 c 10.371,-6.028 16.734,-18.414 28.465,-22.442 3.668,-1 8.019,-3.011 10.035,-6.347 -4.692,0.324 -8.699,0.324 -13.051,0 -4.687,1 -9.375,1 -13.062,4.351 -4.352,3.672 -6.364,9.035 -9.04,13.723 -1.675,3.691 -3.347,7.699 -5.363,11.391 -0.66,0.66 -2.676,1.336 -3.012,0 -1,-3.352 1.676,-6.043 2.352,-9.055 3.672,-5.008 4.688,-11.371 6.363,-17.074 -4.027,4.027 -8.379,9.375 -10.39,15.078 0.336,4.687 -1,10.375 3.011,13.047 1.676,-0.34 2.012,-1.996 3.692,-2.672"
         style="fill:#00674c;fill-opacity:1;fill-rule:nonzero;stroke:none"
         id="path238" /><path
         d="m 260.219,528.625 c 0.336,-6.023 -0.68,-12.727 -0.68,-18.41 1.016,-12.051 1.016,-24.777 0,-37.504 l -1.336,0 c -5.348,3.691 -4.351,10.715 -9.039,14.723 -0.996,7.043 -6.359,12.07 -4.348,20.105 0.661,12.711 8.039,22.426 12.727,33.477 0.32,2.672 2.676,5.363 0.996,8.035 l -1.336,1 c 1,1 3.352,2.015 4.012,-0.34 2.351,-6.684 -0.996,-14.383 -0.996,-21.086"
         style="fill:#00674c;fill-opacity:1;fill-rule:nonzero;stroke:none"
         id="path240" /><path
         d="m 254.859,548.043 c -0.339,-2.672 -1.675,-6.023 -3.691,-8.039 -0.996,1.016 -0.996,3.012 -0.656,4.351 0.996,1.672 2.332,3.348 4.347,3.688"
         style="fill:#00674c;fill-opacity:1;fill-rule:nonzero;stroke:none"
         id="path242" /><path
         d="m 299.055,542.02 0.336,-1.676 c -3.688,-1 -9.036,-2.016 -12.727,-0.34 -0.996,1.016 -3.348,2.355 -2.351,3.691 4.687,0 11.39,2.016 14.742,-1.675"
         style="fill:#00674c;fill-opacity:1;fill-rule:nonzero;stroke:none"
         id="path244" /><path
         d="m 247.492,534.316 c -0.34,-3.011 -1.676,-5.027 -4.347,-6.027 l -0.34,0 c -0.34,4.691 -4.012,11.391 2.351,14.402 1,-3.011 1.336,-5.363 2.336,-8.375"
         style="fill:#00674c;fill-opacity:1;fill-rule:nonzero;stroke:none"
         id="path246" /><path
         d="m 304.074,533.648 c -0.336,-2.011 -2.672,-2.011 -4.347,-2.671 -2.352,0.32 -4.688,1.675 -5.704,3.671 3.352,0.336 8.379,3.012 10.051,-1"
         style="fill:#00674c;fill-opacity:1;fill-rule:nonzero;stroke:none"
         id="path248" /><path
         d="m 237.781,533.98 c -0.676,-4.007 3.692,-8.695 -1.672,-11.05 l -1.675,-0.336 c 0,2.691 -2.336,6.023 -0.34,9.035 1.355,1.016 2.015,3.351 3.687,2.351"
         style="fill:#00674c;fill-opacity:1;fill-rule:nonzero;stroke:none"
         id="path250" /><path
         d="m 306.754,526.949 0,-0.336 c -1,-0.66 -2.676,1.016 -3.691,2.012 1.015,1 3.011,-0.34 3.691,-1.676"
         style="fill:#00674c;fill-opacity:1;fill-rule:nonzero;stroke:none"
         id="path252" /><path
         d="m 269.254,522.598 c 3.016,-7.024 9.715,-12.727 7.043,-21.086 -1.356,-0.34 0,1.996 -1.016,2.336 -2.676,7.359 -12.051,12.386 -11.051,21.101 0.676,6.688 2.692,-1.676 5.024,-2.351"
         style="fill:#00674c;fill-opacity:1;fill-rule:nonzero;stroke:none"
         id="path254" /><path
         d="m 229.078,523.602 c 0.676,-1.672 -0.34,-3.012 -2.015,-3.348 -2.333,0 -3.672,-0.66 -6.024,-0.34 2.016,1.676 5.027,5.027 7.699,5.703 l 0.34,-2.015"
         style="fill:#00674c;fill-opacity:1;fill-rule:nonzero;stroke:none"
         id="path256" /><path
         d="m 266.91,506.191 c 3.692,-5.363 8.379,-11.711 6.028,-18.75 -0.661,-0.339 -0.34,-1.675 -1,-1.675 -2.012,7.699 -11.391,14.742 -7.7,24.777 0.996,-1.34 2.336,-2.676 2.672,-4.352"
         style="fill:#00674c;fill-opacity:1;fill-rule:nonzero;stroke:none"
         id="path258" /><path
         d="m 267.914,481.754 c 0,-4.352 -1.676,-9.375 -4.687,-13.387 0.675,7.024 -0.997,13.387 0.675,20.426 2.336,-1.676 3.336,-4.027 4.012,-7.039"
         style="fill:#00674c;fill-opacity:1;fill-rule:nonzero;stroke:none"
         id="path260" /><path
         d="m 1466.71,866.441 c -18.43,69.391 -61.79,102.989 -136.6,102.989 -99.75,0 -157.21,-73.168 -157.21,-201.11 0,-127.922 57.46,-201.105 157.21,-201.105 71.54,0 122.5,34.703 145.82,102.449 l -69.39,18.434 c -22.23,-46.078 -42.82,-58 -76.43,-58 -56.38,0 -83.49,46.625 -82.4,138.222 0,91.618 30.35,138.246 80.22,138.246 36.86,0 60.18,-23.316 71.01,-56.378 l 67.77,16.253 z m 308.45,-293.808 0,62.883 -170.22,0 0,328.496 -74.81,0 0,-391.379 245.03,0 z m 324.7,0 0,62.883 -190.27,0 0,109.511 133.89,0 0,62.864 -133.89,0 0,93.238 184.3,0 0,62.883 -259.11,0 0,-391.379 265.08,0 z m 129.54,0 83.49,0 103.54,391.379 -73.72,0 -72.65,-288.375 -1.09,0 -69.37,288.375 -73.72,0 103.52,-391.379 z m 503.05,0 0,62.883 -190.25,0 0,109.511 133.89,0 0,62.864 -133.89,0 0,93.238 184.3,0 0,62.883 -259.11,0 0,-391.379 265.06,0 z m 307.91,0 0,62.883 -170.22,0 0,328.496 -74.81,0 0,-391.379 245.03,0 z m 181.06,316.57 1.07,0 43.92,-170.199 -91.09,0 46.1,170.199 z m -159.92,-316.57 74.25,0 23.32,84.574 123.59,0 21.69,-84.574 74.26,0 -111.12,391.933 -93.24,0 -112.75,-391.933 z m 438.54,0 0,278.625 1.07,0 159.92,-278.625 72.1,0 0,391.379 -70.48,0 0,-266.699 -1.07,0 -153.96,266.699 -78.05,0 0,-391.379 70.47,0 z m 319.27,0 129.56,0 c 103.54,0 175.09,57.465 175.64,195.687 -0.55,138.246 -72.1,195.692 -175.64,195.692 l -129.56,0 0,-391.379 z m 74.8,328.496 49.88,0 c 85.64,0 105.71,-62.867 105.71,-132.809 0,-69.922 -20.07,-132.804 -105.71,-132.804 l -49.88,0 0,265.613 z m 705.25,-20.051 c -23.32,56.91 -75.36,88.352 -138.23,88.352 -67.76,0 -126.32,-39.571 -126.32,-109.492 0,-120.348 201.66,-105.161 201.66,-182.145 0,-37.945 -28.73,-52.027 -66.12,-52.027 -43.92,0 -67.23,24.382 -85.11,61.242 l -61.8,-27.094 c 22.23,-56.93 82.38,-92.699 146.35,-92.699 86.74,0 137.16,40.121 137.16,120.348 0,126.835 -201.66,112.753 -201.66,179.968 0,30.356 23.31,43.367 55.84,43.367 35.22,0 58.54,-20.605 69.93,-50.96 l 68.3,21.14 z m 46.61,83.488 0,-62.886 102.45,0 0,-329.047 74.81,0 0,329.047 102.45,0 0,62.886 -279.71,0 z m 427.7,-75.363 1.09,0 43.9,-170.199 -91.06,0 46.07,170.199 z m -159.91,-316.57 74.27,0 23.31,84.574 123.59,0 21.68,-84.574 74.27,0 -111.13,391.933 -93.24,0 -112.75,-391.933 z m 305.2,391.933 0,-62.886 102.45,0 0,-329.047 74.81,0 0,329.047 102.45,0 0,62.886 -279.71,0 z m 601.15,-391.933 0,62.883 -190.26,0 0,109.511 133.88,0 0,62.864 -133.88,0 0,93.238 184.31,0 0,62.883 -259.11,0 0,-391.379 265.06,0 z M 1407.89,150.809 c 0,-63.4184 -24.93,-85.6449 -75.34,-85.6449 -50.42,0 -75.36,22.2265 -75.36,85.6449 l 0,248.269 -74.81,0 0,-245.008 c 0,-114.3786 70.48,-151.78875 150.17,-151.78875 79.67,0 150.15,37.41015 150.15,151.78875 l 0,245.008 -74.81,0 0,-248.269 z M 1642.6,7.69922 l 0,278.62478 1.09,0 159.91,-278.62478 72.1,0 0,391.37878 -70.47,0 0,-266.699 -1.09,0 -153.95,266.699 -78.05,0 0,-391.37878 70.46,0 z m 404.39,391.37878 -74.81,0 0,-391.37878 74.81,0 0,391.37878 z m 162.07,-391.37878 83.47,0 103.54,391.37878 -73.72,0 -72.63,-288.375 -1.09,0 -69.38,288.375 -73.72,0 103.53,-391.37878 z m 503.05,0 0,62.88278 -190.27,0 0,109.492 133.9,0 0,62.883 -133.9,0 0,93.238 184.3,0 0,62.883 -259.11,0 0,-391.37878 265.08,0 z m 137.69,0 0,159.38278 64.51,0 73.72,-159.38278 82.93,0 -86.19,174.55078 c 47.71,13.547 72.1,52.582 71.56,100.828 -0.55,64.508 -36.32,116 -125.21,116 l -156.12,0 0,-391.37878 74.8,0 z m 0,330.67178 68.31,0 c 41.19,0 63.41,-18.43 63.41,-55.293 0,-36.859 -17.89,-55.289 -76.43,-55.289 l -55.29,0 0,110.582 z m 539.89,-22.226 c -23.29,56.91 -75.34,88.351 -138.22,88.351 -67.75,0 -126.3,-39.566 -126.3,-109.492 0,-120.348 201.66,-105.16 201.66,-182.145 0,-37.9449 -28.73,-52.027 -66.15,-52.027 -43.9,0 -67.21,24.3828 -85.11,61.242 l -61.79,-27.0896 c 22.22,-56.9297 82.4,-92.70315 146.37,-92.70315 86.73,0 137.14,40.12105 137.14,120.34775 0,126.836 -201.65,112.754 -201.65,179.969 0,30.355 23.3,43.367 55.83,43.367 35.24,0 58.55,-20.606 69.92,-50.961 l 68.3,21.141 z m 163.18,82.933 -74.8,0 0,-391.37878 74.8,0 0,391.37878 z m 63.96,0.555 0,-62.883 102.45,0 0,-329.05078 74.81,0 0,329.05078 102.45,0 0,62.883 -279.71,0 z m 374.03,-0.555 -78.07,0 107.89,-235.258 0,-156.12078 74.81,0 0,156.12078 107.87,235.258 -78.07,0 -67.21,-155.031 -67.22,155.031"
         style="fill:#00674c;fill-opacity:1;fill-rule:nonzero;stroke:none"
         id="path262" /></g></g></svg>